<svg width="151" height="60" xmlns="http://www.w3.org/2000/svg" xmlns:xlink="http://www.w3.org/1999/xlink" overflow="hidden"><defs><clipPath id="clip0"><rect x="577" y="300" width="151" height="60"/></clipPath><clipPath id="clip1"><rect x="672" y="301" width="56" height="56"/></clipPath><clipPath id="clip2"><rect x="672" y="301" width="56" height="56"/></clipPath><clipPath id="clip3"><rect x="672" y="301" width="56" height="56"/></clipPath></defs><g clip-path="url(#clip0)" transform="translate(-577 -300)"><g clip-path="url(#clip1)"><g clip-path="url(#clip2)"><g clip-path="url(#clip3)"><path d="M709.59 338.812C709.917 338.403 710.045 337.913 710.131 337.345 709.968 336.823 709.68 336.331 709.266 335.917L706.4 338.783C707.047 339.943 708.798 339.802 709.59 338.812Z" fill="#737373"/><path d="M689.612 319.65C688.924 320.107 688.114 320.367 687.258 320.367L687.066 320.367C687.031 320.367 686.997 320.369 686.963 320.373 686.72 320.402 686.415 320.786 686.331 321.109 686.26 321.378 686.303 321.841 686.329 321.908 686.871 323.335 688.129 324.41 689.67 324.677 690.752 324.543 691.592 323.163 691.592 322.148 691.592 321.106 690.814 319.628 689.612 319.65Z" fill="#D2D2D2"/><path d="M687.728 321.231C687.728 320.787 687.394 320.422 686.963 320.373 686.425 320.433 686.051 320.962 686.195 321.5 686.233 321.639 686.279 321.775 686.329 321.908 686.476 322.025 686.662 322.095 686.864 322.095 687.341 322.095 687.728 321.708 687.728 321.231Z" fill="#505050"/><path d="M704.379 317.873C700.48 316.694 697.02 316.011 695.339 316.028 695.142 316.002 694.941 315.989 694.737 315.992 693.15 316.013 691.767 316.878 691.017 318.158 690.661 318.766 690.178 319.275 689.612 319.65 690.393 320.222 690.9 321.144 690.9 322.185 690.9 323.2 690.418 324.102 689.672 324.675 689.671 324.676 689.671 324.677 689.672 324.677 689.876 324.713 690.085 324.733 690.297 324.739L690.297 324.744C690.737 325.383 692.09 327.67 692.09 328.417 692.09 328.847 691.95 329.742 691.95 329.742L691.95 336.297C691.95 337.326 691.379 338.287 690.45 338.729 689.267 339.29 688.45 340.496 688.45 341.892L689.851 341.892C689.851 341.892 690.352 341.647 691.67 341.647 692.988 341.647 693.467 341.892 693.467 341.892L703.542 341.892C704.319 341.892 705.045 341.508 705.483 340.867 706.215 341.581 707.297 341.819 708.253 341.455 708.647 341.304 709.022 341.11 709.266 340.867 710.219 339.914 710.507 338.55 710.132 337.348 710.132 337.347 710.13 337.347 710.13 337.347 710.008 337.527 709.868 337.699 709.708 337.858 708.846 338.72 707.645 339.038 706.533 338.812L706.533 336.642 706.533 336.251C706.533 330.247 702.071 325.285 696.281 324.501 697.51 324.071 698.485 323.102 698.922 321.877 699.485 322.611 700.136 323.388 700.859 324.184 701.329 324.702 701.829 325.227 702.355 325.753 705.843 329.241 709.297 331.595 710.66 331.501 710.841 331.489 710.986 331.433 711.088 331.331 711.959 330.46 709.462 326.55 705.51 322.598 704.811 321.899 704.114 321.246 703.434 320.649 703.466 320.659 703.841 320.772 703.995 320.817 709.139 322.335 713.413 322.958 713.641 322.206 713.875 321.431 709.728 319.491 704.379 317.873Z"/><path d="M705.971 324.699C708.453 327.691 710.115 330.407 709.681 330.767 709.248 331.126 706.885 328.993 704.402 326.001 701.92 323.01 700.258 320.294 700.692 319.934 701.125 319.575 703.488 321.708 705.971 324.699Z" fill="#FFFFFF"/><path d="M695.375 338.778C695.38 338.781 695.384 338.784 695.389 338.788 695.583 338.676 695.796 338.584 696.033 338.518L696.033 336.642C696.033 334.152 697.766 332.067 700.092 331.527 699.141 330.553 697.884 329.879 696.477 329.66 696.476 329.66 696.476 329.66 696.476 329.66 696.384 329.646 695.977 329.585 695.457 329.584 694.942 329.583 694.441 329.648 693.961 329.764 694.094 329.378 694.167 328.964 694.167 328.533 694.167 328.468 694.165 328.403 694.162 328.338 694.073 326.593 692.805 325.16 691.139 324.819 690.892 324.768 690.637 324.742 690.375 324.742 690.374 324.742 690.373 324.742 690.373 324.742 690.347 324.742 690.322 324.743 690.297 324.744L690.297 328.182C690.297 329.382 690.453 330.546 690.745 331.655 690.801 331.867 690.862 332.077 690.927 332.285 691.45 333.937 692.28 335.452 693.35 336.765L693.35 338.392C691.417 338.392 689.85 339.959 689.85 341.892 689.85 341.892 693.429 341.892 693.467 341.892 693.468 340.534 694.244 339.357 695.375 338.778Z" fill="#737373"/><path d="M690.667 342.008C690.602 342.008 690.55 341.956 690.55 341.892L690.55 341.862C690.55 341.253 690.694 340.643 690.966 340.098L691.029 339.973C691.058 339.915 691.128 339.892 691.185 339.921 691.243 339.95 691.266 340.02 691.238 340.077L691.175 340.203C690.919 340.715 690.783 341.289 690.783 341.862L690.783 341.892C690.783 341.956 690.731 342.008 690.667 342.008Z" fill="#505050"/><path d="M691.367 342.008C691.302 342.008 691.25 341.956 691.25 341.892L691.25 341.862C691.25 341.253 691.394 340.643 691.666 340.098L691.729 339.973C691.758 339.915 691.828 339.892 691.885 339.921 691.943 339.95 691.966 340.02 691.938 340.077L691.875 340.203C691.619 340.715 691.483 341.289 691.483 341.862L691.483 341.892C691.483 341.956 691.431 342.008 691.367 342.008Z" fill="#505050"/><path d="M694.283 342.008C694.219 342.008 694.167 341.956 694.167 341.892L694.167 341.862C694.167 341.253 694.311 340.643 694.583 340.098L694.646 339.973C694.674 339.915 694.745 339.892 694.802 339.921 694.86 339.95 694.883 340.02 694.854 340.077L694.792 340.203C694.535 340.715 694.4 341.289 694.4 341.862L694.4 341.892C694.4 341.956 694.348 342.008 694.283 342.008Z" fill="#FFFFFF"/><path d="M694.983 342.008C694.919 342.008 694.867 341.956 694.867 341.892L694.867 341.862C694.867 341.253 695.011 340.643 695.283 340.098L695.346 339.973C695.374 339.915 695.445 339.892 695.502 339.921 695.56 339.95 695.583 340.02 695.554 340.077L695.492 340.203C695.235 340.715 695.1 341.289 695.1 341.862L695.1 341.892C695.1 341.956 695.048 342.008 694.983 342.008Z" fill="#FFFFFF"/><path d="M693.754 331.504C693.754 331.891 693.441 332.204 693.054 332.204 692.668 332.204 692.354 331.891 692.354 331.504 692.354 331.117 692.668 330.804 693.054 330.804 693.441 330.804 693.754 331.117 693.754 331.504Z" fill="#505050"/><path d="M695.146 332.517C695.146 332.775 694.937 332.984 694.679 332.984 694.422 332.984 694.213 332.775 694.213 332.517 694.213 332.26 694.422 332.051 694.679 332.051 694.937 332.051 695.146 332.26 695.146 332.517Z" fill="#D2D2D2"/><path d="M694.093 334.075C694.093 334.333 693.884 334.542 693.627 334.542 693.369 334.542 693.16 334.333 693.16 334.075 693.16 333.817 693.369 333.608 693.627 333.608 693.884 333.608 694.093 333.817 694.093 334.075Z" fill="#D2D2D2"/><path d="M699.872 334.017C699.872 334.403 699.558 334.717 699.172 334.717 698.785 334.717 698.472 334.403 698.472 334.017 698.472 333.63 698.785 333.317 699.172 333.317 699.558 333.317 699.872 333.63 699.872 334.017Z" fill="#FFFFFF"/><path d="M701.971 335.067C701.971 335.324 701.762 335.533 701.504 335.533 701.247 335.533 701.038 335.324 701.038 335.067 701.038 334.809 701.247 334.6 701.504 334.6 701.762 334.6 701.971 334.809 701.971 335.067Z" fill="#FFFFFF"/><path d="M700.405 336.484C700.405 336.742 700.196 336.951 699.938 336.951 699.68 336.951 699.471 336.742 699.471 336.484 699.471 336.226 699.68 336.017 699.938 336.017 700.196 336.017 700.405 336.226 700.405 336.484Z" fill="#FFFFFF"/><path d="M695.1 320.031C695.1 320.957 694.349 321.708 693.423 321.708 692.497 321.708 691.746 320.957 691.746 320.031 691.746 319.105 692.497 318.354 693.423 318.354 694.349 318.354 695.1 319.105 695.1 320.031Z" fill="#FFFFFF"/><path d="M694.836 319.337C695.076 319.577 695.072 319.969 694.828 320.212 694.584 320.454 694.192 320.456 693.953 320.215 693.714 319.974 693.717 319.583 693.961 319.34 694.206 319.098 694.597 319.096 694.836 319.337Z" fill="#737373"/></g></g></g><text font-family="Consolas,Consolas_MSFontService,sans-serif" font-weight="700" font-size="21" transform="translate(590.671 341)">learn ml</text></g></svg>