<?xml version="1.0" encoding="UTF-8"?>
<svg xmlns="http://www.w3.org/2000/svg" xmlns:xlink="http://www.w3.org/1999/xlink" width="36pt" height="297pt" viewBox="0 0 36 297" version="1.1">
<g id="surface1">
<path style=" stroke:none;fill-rule:nonzero;fill:rgb(99.607843%,99.607843%,99.607843%);fill-opacity:1;" d="M 0 284.332031 L 5.71875 284.332031 L 5.492188 285.375 L 5.261719 286.414062 L 5.714844 286.703125 C 5.964844 286.859375 6.507812 286.992188 6.921875 286.996094 L 7.679688 287 L 6 290.3125 L 6 290.953125 C 6 291.5 5.003906 295.070312 4.4375 296.539062 L 4.261719 297 L 23.332031 297 L 23.328125 296.582031 C 23.324219 296.355469 23.101562 295.226562 22.832031 294.074219 L 22.335938 291.984375 L 22.742188 291.335938 L 23.144531 290.691406 L 22.40625 289.167969 C 22 288.332031 21.667969 287.503906 21.667969 287.324219 L 21.667969 287 L 22.332031 287 C 23.132812 287 23.125 287.050781 22.496094 285.539062 L 21.992188 284.332031 L 25.058594 284.332031 L 24.832031 285.679688 L 24.601562 287.027344 L 26.40625 286.574219 L 26.167969 287.371094 C 26.039062 287.808594 25.570312 288.824219 25.128906 289.628906 L 24.328125 291.09375 L 24.671875 291.503906 L 25.011719 291.914062 L 24.511719 294.039062 C 24.234375 295.210938 24.007812 296.355469 24.003906 296.582031 L 24 297 L 34.378906 297 L 34.140625 296.25 C 33.5625 294.449219 33.007812 292.113281 33.003906 291.476562 L 33 290.785156 L 31.988281 288.914062 L 30.976562 287.046875 L 31.554688 286.722656 L 32.136719 286.398438 L 31.734375 285.515625 C 31.515625 285.03125 31.332031 284.566406 31.332031 284.484375 C 31.332031 284.402344 32.382812 284.332031 33.667969 284.332031 L 36 284.332031 L 36 280.355469 L 34.035156 278.761719 L 32.074219 277.167969 L 31.675781 275.832031 L 31.667969 192.332031 L 5.667969 192.332031 L 5.667969 274.242188 L 2.832031 276.960938 L 0 279.679688 Z M 12.015625 287.167969 L 12.839844 286.851562 L 13.667969 286.539062 L 13.667969 286.078125 C 13.667969 285.828125 13.511719 285.332031 13.320312 284.976562 L 12.976562 284.332031 L 15.746094 284.332031 L 15.515625 285.082031 C 15.390625 285.496094 15.207031 286.097656 15.105469 286.417969 L 14.921875 287 L 16 287 L 15.976562 287.417969 C 15.960938 287.644531 15.671875 288.621094 15.328125 289.582031 L 14.707031 291.332031 L 14.9375 291.371094 C 15.0625 291.394531 15.300781 291.386719 15.460938 291.359375 L 15.757812 291.304688 L 15.546875 292.570312 C 15.433594 293.265625 15.179688 294.394531 14.988281 295.082031 L 14.636719 296.332031 L 14.125 296.332031 L 13.320312 293.167969 L 13.40625 290.167969 Z M 12.015625 287.167969 "/>
<path style=" stroke:none;fill-rule:nonzero;fill:rgb(0%,0%,0%);fill-opacity:1;" d="M 0 284.332031 L 5.71875 284.332031 L 5.492188 285.375 L 5.261719 286.414062 L 5.714844 286.703125 C 5.964844 286.859375 6.507812 286.992188 6.921875 286.996094 L 7.679688 287 L 6 290.3125 L 6 290.953125 C 6 291.5 5.003906 295.070312 4.4375 296.539062 L 4.261719 297 L 23.332031 297 L 23.328125 296.582031 C 23.324219 296.355469 23.101562 295.226562 22.832031 294.074219 L 22.335938 291.984375 L 22.742188 291.335938 L 23.144531 290.691406 L 22.40625 289.167969 C 22 288.332031 21.667969 287.503906 21.667969 287.324219 L 21.667969 287 L 22.332031 287 C 23.132812 287 23.125 287.050781 22.496094 285.539062 L 21.992188 284.332031 L 25.058594 284.332031 L 24.832031 285.679688 L 24.601562 287.027344 L 26.40625 286.574219 L 26.167969 287.371094 C 26.039062 287.808594 25.570312 288.824219 25.128906 289.628906 L 24.328125 291.09375 L 24.671875 291.503906 L 25.011719 291.914062 L 24.511719 294.039062 C 24.234375 295.210938 24.007812 296.355469 24.003906 296.582031 L 24 297 L 34.378906 297 L 34.140625 296.25 C 33.5625 294.449219 33.007812 292.113281 33.003906 291.476562 L 33 290.785156 L 31.988281 288.914062 L 30.976562 287.046875 L 31.554688 286.722656 L 32.136719 286.398438 L 31.734375 285.515625 C 31.515625 285.03125 31.332031 284.566406 31.332031 284.484375 C 31.332031 284.402344 32.382812 284.332031 33.667969 284.332031 L 36 284.332031 L 36 280.355469 L 34.035156 278.761719 L 32.074219 277.167969 L 31.675781 275.832031 L 31.667969 192.332031 L 5.667969 192.332031 L 5.667969 274.242188 L 2.832031 276.960938 L 0 279.679688 Z M 1 283.332031 L 1 279.484375 L 3.117188 277.410156 C 4.277344 276.265625 5.328125 275.332031 5.449219 275.332031 C 5.570312 275.332031 5.667969 275.601562 5.667969 275.929688 L 5.667969 276.527344 L 2.667969 279.472656 L 2.667969 283.332031 Z M 3.332031 283.332031 L 3.332031 279.777344 L 5.632812 277.554688 C 6.898438 276.332031 8.023438 275.332031 8.132812 275.332031 L 8.332031 275.332031 L 8.292969 276.417969 C 8.25 277.539062 7.898438 280.171875 7.519531 282.175781 L 7.304688 283.332031 Z M 5.667969 296.332031 L 5.671875 295.917969 C 5.675781 295.6875 5.890625 294.6875 6.15625 293.695312 L 6.636719 291.890625 L 6.957031 291.695312 L 7.277344 291.496094 L 9.488281 291.539062 L 11.695312 291.585938 L 11.902344 291.792969 L 12.113281 292 L 7.332031 292 L 7.332031 292.667969 L 12.332031 292.667969 L 12.332031 293.332031 L 6.960938 293.332031 L 7.167969 293.667969 L 7.371094 294 L 12.667969 294 L 12.667969 295 L 6.332031 295 L 6.332031 295.71875 L 7.417969 295.65625 C 8.011719 295.625 9.4375 295.613281 10.582031 295.632812 L 12.667969 295.667969 L 12.667969 296.332031 Z M 6.332031 286.226562 L 6.332031 285.804688 C 6.332031 285.578125 6.425781 285.148438 6.535156 284.859375 L 6.738281 284.332031 L 11.929688 284.332031 L 12.132812 284.859375 C 12.242188 285.148438 12.332031 285.582031 12.332031 285.820312 L 12.332031 286.253906 L 9.332031 286.242188 Z M 6.332031 233.667969 L 6.332031 200 L 10.667969 200 L 10.667969 193 L 20 193 L 20 200 L 25.332031 200 L 25.332031 233.667969 L 24.332031 233.667969 L 24.332031 200.667969 L 23.667969 200.667969 L 23.667969 233.667969 Z M 6.65625 290.667969 L 7.667969 288.667969 L 8.675781 286.667969 L 10.617188 286.667969 L 11.308594 288.511719 C 11.691406 289.527344 12 290.425781 12 290.511719 C 12 290.597656 10.796875 290.667969 9.328125 290.667969 Z M 8.328125 282.917969 C 8.328125 282.6875 8.660156 279.6875 9.066406 276.25 L 9.804688 270 L 10.042969 270.421875 C 10.300781 270.882812 11.757812 277.324219 12.316406 280.476562 C 12.507812 281.566406 12.667969 282.652344 12.667969 282.894531 L 12.667969 283.332031 L 8.332031 283.332031 Z M 10 265.675781 L 10 242 L 18.332031 242 L 18.332031 283.332031 L 14.417969 283.332031 L 12.207031 274.503906 Z M 12.015625 287.167969 L 12.839844 286.851562 L 13.667969 286.539062 L 13.667969 286.078125 C 13.667969 285.828125 13.511719 285.332031 13.320312 284.976562 L 12.976562 284.332031 L 15.746094 284.332031 L 15.515625 285.082031 C 15.390625 285.496094 15.207031 286.097656 15.105469 286.417969 L 14.921875 287 L 16 287 L 15.976562 287.417969 C 15.960938 287.644531 15.671875 288.621094 15.328125 289.582031 L 14.707031 291.332031 L 14.9375 291.371094 C 15.0625 291.394531 15.300781 291.386719 15.460938 291.359375 L 15.757812 291.304688 L 15.546875 292.570312 C 15.433594 293.265625 15.179688 294.394531 14.988281 295.082031 L 14.636719 296.332031 L 14.125 296.332031 L 13.320312 293.167969 L 13.40625 290.167969 Z M 15.667969 296.332031 L 15.667969 295.769531 C 15.667969 295.460938 15.910156 294.335938 16.210938 293.269531 L 16.753906 291.332031 L 21 291.332031 L 21 292 L 17.332031 292 L 17.332031 292.667969 L 21.332031 292.667969 L 21.332031 293.332031 L 16.667969 293.332031 L 16.667969 294 L 21.667969 294 L 21.667969 295 L 16.667969 295 L 16.667969 295.71875 L 19.335938 295.609375 L 22 295.5 L 22 296.332031 Z M 15.917969 290.667969 L 16.101562 289.75 C 16.203125 289.246094 16.441406 288.421875 16.632812 287.917969 L 16.984375 287 L 20.253906 287 L 20.449219 287.582031 C 20.554688 287.902344 20.855469 288.730469 21.117188 289.417969 L 21.589844 290.667969 Z M 16.042969 285.933594 L 16.410156 285.132812 L 16.773438 284.332031 L 20.921875 284.332031 L 21.125 285.082031 C 21.234375 285.496094 21.328125 285.945312 21.328125 286.082031 L 21.332031 286.332031 L 16.445312 286.332031 L 16.046875 285.933594 Z M 24.742188 296.332031 L 25.875 291.832031 L 28.855469 291.808594 L 31.832031 291.785156 L 29.417969 291.90625 L 27 292.027344 L 27 292.667969 L 32 292.667969 L 32 293.332031 L 26.667969 293.332031 L 26.667969 294 L 32.332031 294 L 32.332031 295 L 26.332031 295 L 26.332031 295.667969 L 32.667969 295.667969 L 32.667969 296.332031 Z M 25.703125 285.574219 C 25.699219 285.4375 25.75 285.257812 25.824219 285.023438 L 26.046875 284.332031 L 29.644531 284.332031 L 29.988281 284.976562 C 30.179688 285.332031 30.332031 285.777344 30.332031 285.964844 L 30.332031 286.308594 L 28.121094 286.160156 C 26.222656 286.035156 25.714844 285.988281 25.703125 285.574219 Z M 25.996094 290.25 C 25.996094 290.019531 26.332031 289.121094 26.742188 288.25 L 27.492188 286.667969 L 29.617188 286.667969 L 30.476562 288.539062 C 30.949219 289.570312 31.332031 290.46875 31.332031 290.539062 C 31.332031 290.609375 30.132812 290.667969 28.667969 290.667969 L 26 290.667969 Z M 27 233.667969 L 27 200 L 28.332031 200 L 28.332031 193 L 29.667969 193 L 29.667969 233.667969 Z M 27.316406 242 L 29.667969 242 L 29.640625 258.25 C 29.625 267.1875 29.558594 274.351562 29.488281 274.167969 C 29.417969 273.984375 28.941406 271.882812 28.433594 269.5 L 27.507812 265.167969 L 27.414062 253.582031 Z M 30.257812 277.625 C 30.273438 276.195312 31.316406 277.121094 34.082031 279.617188 L 35.332031 280.742188 L 35.332031 283.667969 L 31.347656 283.667969 L 31.1875 282.917969 C 30.605469 280.191406 30.246094 278.480469 30.257812 277.625 Z M 30.257812 277.625 "/>
<path style=" stroke:none;fill-rule:nonzero;fill:rgb(99.607843%,99.607843%,99.607843%);fill-opacity:1;" d="M 5.667969 189 L 32 189 L 32 176.667969 L 5.667969 176.667969 Z M 5.667969 189 "/>
<path style=" stroke:none;fill-rule:nonzero;fill:rgb(0%,0%,0%);fill-opacity:1;" d="M 5.667969 189 L 32 189 L 32 176.667969 L 5.667969 176.667969 Z M 10.667969 188.332031 L 10.667969 177.332031 L 20 177.332031 L 20 188.332031 Z M 28 188.332031 L 28 177.332031 L 31.332031 177.332031 L 31.332031 188.332031 Z M 28 188.332031 "/>
<path style=" stroke:none;fill-rule:nonzero;fill:rgb(99.607843%,99.607843%,99.607843%);fill-opacity:1;" d="M 5.667969 162.667969 L 7.933594 162.667969 L 8.351562 163.75 C 8.578125 164.347656 8.78125 164.984375 8.800781 165.167969 L 8.832031 165.5 L 9.867188 165.601562 L 10.898438 165.699219 L 10.226562 169.167969 L 9.800781 169.421875 L 9.371094 169.675781 L 9.148438 171.160156 L 8.929688 172.644531 L 8.007812 173.410156 L 8.179688 173.6875 L 8.355469 173.96875 L 18.355469 173.96875 C 23.859375 173.96875 28.558594 173.894531 28.800781 173.800781 L 29.238281 173.632812 L 28.65625 171.566406 C 28.339844 170.429688 27.757812 168.90625 27.371094 168.179688 L 26.667969 166.859375 L 26.667969 165.332031 L 27.960938 165.332031 L 28.480469 164.59375 C 28.765625 164.183594 29 163.585938 29 163.257812 L 29 162.667969 L 31.332031 162.667969 L 31.332031 118.074219 L 30.835938 116.453125 C 30.5625 115.5625 29.621094 112.433594 28.746094 109.5 L 27.152344 104.167969 L 18.421875 104.078125 L 9.695312 103.988281 L 9.359375 105.242188 C 9.175781 105.933594 8.269531 109.320312 7.347656 112.769531 L 5.667969 119.042969 Z M 13.574219 165.332031 L 17.667969 165.332031 L 17.636719 165.917969 C 17.582031 166.964844 16.953125 168.820312 16.472656 169.359375 L 16 169.886719 L 16 171.707031 L 15.667969 171.5 L 15.332031 171.292969 L 15.332031 170.023438 L 13.980469 168.765625 L 13.777344 167.046875 Z M 19.957031 165.332031 L 24 165.332031 L 23.964844 165.582031 C 23.945312 165.722656 23.785156 166.472656 23.613281 167.25 L 23.292969 168.667969 L 22.726562 168.667969 L 22.5 169.996094 L 22.277344 171.328125 L 21.972656 171.515625 L 21.667969 171.707031 L 21.667969 169.746094 L 20.683594 168.933594 L 20.480469 167.714844 C 20.367188 167.046875 20.203125 166.238281 20.117188 165.917969 Z M 19.957031 165.332031 "/>
<path style=" stroke:none;fill-rule:nonzero;fill:rgb(0%,0%,0%);fill-opacity:1;" d="M 5.667969 162.667969 L 7.933594 162.667969 L 8.351562 163.75 C 8.578125 164.347656 8.78125 164.984375 8.800781 165.167969 L 8.832031 165.5 L 9.867188 165.601562 L 10.898438 165.699219 L 10.226562 169.167969 L 9.800781 169.421875 L 9.371094 169.675781 L 9.148438 171.160156 L 8.929688 172.644531 L 8.007812 173.410156 L 8.179688 173.6875 L 8.355469 173.96875 L 18.355469 173.96875 C 23.859375 173.96875 28.558594 173.894531 28.800781 173.800781 L 29.238281 173.632812 L 28.65625 171.566406 C 28.339844 170.429688 27.757812 168.90625 27.371094 168.179688 L 26.667969 166.859375 L 26.667969 165.332031 L 27.960938 165.332031 L 28.480469 164.59375 C 28.765625 164.183594 29 163.585938 29 163.257812 L 29 162.667969 L 31.332031 162.667969 L 31.332031 118.074219 L 30.835938 116.453125 C 30.5625 115.5625 29.621094 112.433594 28.746094 109.5 L 27.152344 104.167969 L 18.421875 104.078125 L 9.695312 103.988281 L 9.359375 105.242188 C 9.175781 105.933594 8.269531 109.320312 7.347656 112.769531 L 5.667969 119.042969 Z M 6.261719 119 L 6.492188 118.417969 C 6.621094 118.097656 7.050781 116.558594 7.453125 115 L 8.183594 112.167969 L 13.59375 112.074219 L 19 111.984375 L 19 119 Z M 6.332031 157 L 6.332031 119.667969 L 30 119.667969 L 30 157 L 28.363281 157 L 28.265625 154.777344 L 28.167969 152.550781 L 27.332031 152.277344 L 27.332031 157 L 11 157 L 11 153 L 10 153 L 10 157 Z M 9 163.867188 L 9 162.667969 L 28.332031 162.667969 L 28.332031 163.867188 L 27.933594 164.265625 L 27.535156 164.667969 L 9.800781 164.667969 Z M 9.429688 172.984375 L 9.769531 171.492188 L 10.113281 170 L 13.6875 170 L 13.816406 170.417969 C 13.890625 170.644531 14.042969 171.394531 14.15625 172.082031 L 14.363281 173.332031 L 12.070312 173.332031 C 10.808594 173.332031 9.699219 173.253906 9.605469 173.160156 Z M 10.925781 169.332031 L 11.148438 168.082031 C 11.585938 165.621094 12.074219 164.933594 12.460938 166.25 C 12.554688 166.570312 12.730469 167.394531 12.851562 168.082031 L 13.074219 169.332031 Z M 13.574219 165.332031 L 17.667969 165.332031 L 17.636719 165.917969 C 17.582031 166.964844 16.953125 168.820312 16.472656 169.359375 L 16 169.886719 L 16 171.707031 L 15.667969 171.5 L 15.332031 171.292969 L 15.332031 170.023438 L 13.980469 168.765625 L 13.777344 167.046875 Z M 16.25 173 L 16.457031 171.957031 C 16.574219 171.386719 16.667969 170.710938 16.667969 170.457031 L 16.667969 170 L 20.332031 170 L 20.339844 170.25 C 20.347656 170.386719 20.480469 171.0625 20.640625 171.75 L 20.929688 173 Z M 17.621094 169.332031 L 17.792969 168.75 C 17.886719 168.429688 18.066406 167.601562 18.1875 166.914062 C 18.308594 166.222656 18.535156 165.582031 18.6875 165.488281 L 18.964844 165.316406 L 19.3125 166.574219 C 19.507812 167.265625 19.664062 168.171875 19.664062 168.582031 L 19.667969 169.332031 Z M 19.667969 111.332031 L 19.667969 104.667969 L 23.636719 104.667969 L 24.652344 107.835938 C 25.210938 109.582031 25.667969 111.082031 25.667969 111.171875 C 25.667969 111.261719 24.316406 111.332031 22.667969 111.332031 Z M 19.957031 165.332031 L 24 165.332031 L 23.964844 165.582031 C 23.945312 165.722656 23.785156 166.472656 23.613281 167.25 L 23.292969 168.667969 L 22.726562 168.667969 L 22.5 169.996094 L 22.277344 171.328125 L 21.972656 171.515625 L 21.667969 171.707031 L 21.667969 169.746094 L 20.683594 168.933594 L 20.480469 167.714844 C 20.367188 167.046875 20.203125 166.238281 20.117188 165.917969 Z M 22.667969 173.332031 L 22.667969 172.707031 C 22.667969 172.363281 22.761719 171.613281 22.875 171.042969 L 23.082031 170 L 26.960938 170 L 27.109375 170.25 C 27.191406 170.386719 27.363281 171.136719 27.492188 171.917969 L 27.726562 173.332031 Z M 23.941406 169.332031 L 24.175781 167.917969 C 24.304688 167.136719 24.570312 166.199219 24.761719 165.832031 L 25.117188 165.167969 L 25.335938 166 C 25.460938 166.457031 25.648438 167.394531 25.757812 168.082031 L 25.957031 169.332031 Z M 25.332031 156 L 26 156 L 26 120.332031 L 25.332031 120.332031 Z M 25.332031 104.667969 L 26.59375 104.667969 L 26.796875 105.417969 C 26.90625 105.828125 27.363281 107.339844 27.8125 108.769531 L 28.628906 111.375 L 27.535156 111.164062 L 26.453125 108.164062 C 25.855469 106.515625 25.359375 105.054688 25.351562 104.917969 Z M 26.667969 151.667969 L 28.667969 151.667969 L 28.667969 120.332031 L 26.667969 120.332031 Z M 26.667969 151.667969 "/>
<path style=" stroke:none;fill-rule:nonzero;fill:rgb(99.607843%,99.607843%,99.607843%);fill-opacity:1;" d="M 9.667969 93 L 16.667969 93 L 16.667969 96.21875 L 14.980469 100.367188 L 14.667969 101.6875 L 14.667969 102 L 22.40625 102 L 22.191406 101.441406 C 22.074219 101.136719 21.824219 100.199219 21.636719 99.359375 C 21.449219 98.519531 21.082031 97.5 20.816406 97.09375 L 20.332031 96.355469 L 20.332031 93 L 26.667969 93 L 26.667969 58.261719 L 9.667969 58.261719 Z M 9.667969 93 "/>
<path style=" stroke:none;fill-rule:nonzero;fill:rgb(0%,0%,0%);fill-opacity:1;" d="M 9.667969 93 L 16.667969 93 L 16.667969 96.21875 L 14.980469 100.367188 L 14.667969 101.6875 L 14.667969 102 L 22.40625 102 L 22.191406 101.441406 C 22.074219 101.136719 21.824219 100.199219 21.636719 99.359375 C 21.449219 98.519531 21.082031 97.5 20.816406 97.09375 L 20.332031 96.355469 L 20.332031 93 L 26.667969 93 L 26.667969 57.332031 L 9.667969 57.332031 Z M 10.332031 92.332031 L 10.332031 63.667969 L 21.332031 63.667969 L 21.332031 92.332031 Z M 16.003906 101.25 C 16.007812 101.203125 16.308594 100.214844 16.671875 99.054688 L 17.332031 96.941406 L 17.332031 95.496094 C 17.332031 94.703125 17.425781 93.816406 17.535156 93.527344 L 17.738281 93 L 19 93 L 19 96.121094 L 19.632812 97.476562 C 19.980469 98.222656 20.363281 99.394531 20.480469 100.082031 L 20.695312 101.332031 L 18.347656 101.332031 C 17.058594 101.332031 16.003906 101.296875 16.003906 101.25 Z M 22 92.332031 L 22 63.667969 L 22.667969 63.667969 L 22.667969 92.332031 Z M 24 92.332031 L 24 63.667969 L 25 63.667969 L 25 92.332031 Z M 24 92.332031 "/>
<path style=" stroke:none;fill-rule:nonzero;fill:rgb(99.607843%,99.607843%,99.607843%);fill-opacity:1;" d="M 9.582031 54.300781 L 26.71875 54.300781 L 26.511719 52.917969 C 26.300781 51.492188 24.402344 42.617188 23.492188 38.765625 L 23 36.695312 L 23 25.445312 L 21.667969 21.707031 L 20.332031 17.96875 L 20.332031 9 L 19.332031 9 L 19.332031 0 L 17.332031 0 L 17.332031 9.332031 L 16.667969 9.332031 L 16.667969 16.914062 L 15 20.96875 L 13.332031 25.019531 L 13.332031 35.6875 L 12.507812 39.757812 C 12.050781 42 11.289062 45.632812 10.8125 47.832031 C 10.335938 50.035156 9.863281 52.394531 9.761719 53.082031 Z M 9.582031 54.300781 "/>
<path style=" stroke:none;fill-rule:nonzero;fill:rgb(0%,0%,0%);fill-opacity:1;" d="M 9.578125 54.332031 L 26.726562 54.332031 L 26.511719 52.917969 C 26.300781 51.492188 24.402344 42.617188 23.492188 38.765625 L 23 36.695312 L 23 25.445312 L 21.667969 21.707031 L 20.332031 17.96875 L 20.332031 9 L 19.332031 9 L 19.332031 0 L 17.332031 0 L 17.332031 9.332031 L 16.667969 9.332031 L 16.667969 16.914062 L 15 20.96875 L 13.332031 25.019531 L 13.332031 35.6875 L 12.507812 39.757812 C 12.050781 42 11.289062 45.632812 10.8125 47.832031 C 10.335938 50.035156 9.863281 52.394531 9.761719 53.082031 Z M 10.246094 53.667969 L 10.441406 52.582031 C 10.886719 50.097656 13.316406 38.761719 13.519531 38.234375 L 13.738281 37.667969 L 18.988281 37.667969 L 19.15625 38.417969 C 19.25 38.828125 19.703125 42.277344 20.164062 46.078125 C 20.625 49.878906 21 53.140625 21 53.328125 L 21 53.667969 Z M 14 36.667969 L 14 25.332031 L 20 25.332031 L 20 36.667969 Z M 14.332031 24.667969 L 14.332031 24.40625 C 14.332031 23.972656 16.679688 18.550781 17.074219 18.078125 L 17.441406 17.632812 L 18.304688 17.734375 L 19.167969 17.832031 L 20.074219 20.5 C 20.574219 21.964844 20.984375 23.503906 20.992188 23.917969 L 21 24.667969 Z M 17.332031 17 L 17.332031 9.667969 L 19.332031 9.667969 L 19.332031 17 Z M 18 9 L 18 1 L 18.667969 1 L 18.667969 9 Z M 19.613281 37.667969 L 20.25 37.667969 L 21.136719 43.417969 C 21.621094 46.578125 22.101562 49.765625 22.195312 50.5 C 22.292969 51.234375 22.449219 52.246094 22.542969 52.75 L 22.71875 53.667969 L 21.785156 53.667969 L 20.882812 46.582031 C 20.382812 42.6875 19.894531 39.085938 19.796875 38.582031 Z M 21 36.667969 L 21 25.332031 L 21.667969 25.332031 L 21.667969 36.667969 Z M 21.324219 37.898438 L 21.496094 37.726562 C 21.820312 37.402344 21.941406 37.859375 23.320312 44.832031 C 24.082031 48.683594 24.78125 52.246094 24.878906 52.75 L 25.054688 53.667969 L 24.445312 53.667969 L 23.878906 50.582031 C 23.570312 48.886719 23.03125 46.148438 22.6875 44.5 C 22.339844 42.851562 21.894531 40.691406 21.691406 39.699219 Z M 21.324219 37.898438 "/>
</g>
</svg>
