<svg width="50" height="139" xmlns="http://www.w3.org/2000/svg" xmlns:xlink="http://www.w3.org/1999/xlink" overflow="hidden"><defs><clipPath id="clip0"><rect x="639" y="269" width="50" height="139"/></clipPath><clipPath id="clip1"><rect x="640" y="270" width="48" height="138"/></clipPath><clipPath id="clip2"><rect x="640" y="270" width="48" height="138"/></clipPath><clipPath id="clip3"><rect x="640" y="270" width="48" height="396"/></clipPath></defs><g clip-path="url(#clip0)" transform="translate(-639 -269)"><g clip-path="url(#clip1)"><g clip-path="url(#clip2)"><g clip-path="url(#clip3)"><path d="M0 379.104 7.62489 379.104 7.32281 380.494 7.01552 381.88 7.61968 382.265C7.95301 382.474 8.67695 382.651 9.22903 382.656L10.2394 382.661 7.99988 387.078 7.99988 387.932C7.99988 388.661 6.67178 393.421 5.91658 395.38L5.68221 395.994 31.1089 395.994 31.1037 395.437C31.0985 395.135 30.8016 393.63 30.4423 392.093L29.7808 389.307 30.3225 388.442 30.8589 387.583 29.8746 385.552C29.3329 384.437 28.8902 383.333 28.8902 383.093L28.8902 382.661 29.7756 382.661C30.8433 382.661 30.8329 382.729 29.9943 380.713L29.3225 379.104 33.411 379.104 33.1089 380.901 32.8016 382.697 35.2078 382.093 34.8901 383.156C34.7182 383.739 34.0932 385.093 33.5047 386.166L32.437 388.119 32.8953 388.666 33.3485 389.213 32.6818 392.046C32.312 393.609 32.0099 395.135 32.0047 395.437L31.9995 395.994 45.8379 395.994 45.5202 394.994C44.7493 392.593 44.0098 389.479 44.0046 388.63L43.9993 387.708 42.6504 385.213 41.3015 382.724 42.0723 382.291 42.8483 381.859 42.3119 380.682C42.0202 380.036 41.7754 379.416 41.7754 379.307 41.7754 379.198 43.1764 379.104 44.89 379.104L47.9993 379.104 47.9993 373.802 45.3795 371.677 42.765 369.552 42.2337 367.771 42.2233 256.439 7.55718 256.439 7.55718 365.651 3.77599 369.276 0 372.901ZM16.0206 382.885 17.1195 382.463 18.2237 382.046 18.2237 381.432C18.2237 381.099 18.0154 380.437 17.7602 379.963L17.3018 379.104 20.9945 379.104 20.6872 380.104C20.5205 380.656 20.2757 381.458 20.1403 381.885L19.8955 382.661 21.333 382.661 21.3018 383.218C21.2809 383.52 20.8955 384.822 20.4372 386.104L19.6091 388.437 19.9164 388.489C20.083 388.52 20.4007 388.51 20.6143 388.473L21.0101 388.4 20.7289 390.088C20.5778 391.015 20.2393 392.52 19.9841 393.437L19.5153 395.104 18.8331 395.104 17.7602 390.885 17.8747 386.885Z" fill="#FEFEFE" transform="matrix(1.00001 0 0 1 640 270)"/><path d="M0 379.104 7.62489 379.104 7.32281 380.494 7.01552 381.88 7.61968 382.265C7.95301 382.474 8.67695 382.651 9.22903 382.656L10.2394 382.661 7.99988 387.078 7.99988 387.932C7.99988 388.661 6.67178 393.421 5.91658 395.38L5.68221 395.994 31.1089 395.994 31.1037 395.437C31.0985 395.135 30.8016 393.63 30.4423 392.093L29.7808 389.307 30.3225 388.442 30.8589 387.583 29.8746 385.552C29.3329 384.437 28.8902 383.333 28.8902 383.093L28.8902 382.661 29.7756 382.661C30.8433 382.661 30.8329 382.729 29.9943 380.713L29.3225 379.104 33.411 379.104 33.1089 380.901 32.8016 382.697 35.2078 382.093 34.8901 383.156C34.7182 383.739 34.0932 385.093 33.5047 386.166L32.437 388.119 32.8953 388.666 33.3485 389.213 32.6818 392.046C32.312 393.609 32.0099 395.135 32.0047 395.437L31.9995 395.994 45.8379 395.994 45.5202 394.994C44.7493 392.593 44.0098 389.479 44.0046 388.63L43.9993 387.708 42.6504 385.213 41.3015 382.724 42.0723 382.291 42.8483 381.859 42.3119 380.682C42.0202 380.036 41.7754 379.416 41.7754 379.307 41.7754 379.198 43.1764 379.104 44.89 379.104L47.9993 379.104 47.9993 373.802 45.3795 371.677 42.765 369.552 42.2337 367.771 42.2233 256.439 7.55718 256.439 7.55718 365.651 3.77599 369.276 0 372.901ZM1.33331 377.77 1.33331 372.64 4.15619 369.875C5.70304 368.349 7.10406 367.104 7.26552 367.104 7.42697 367.104 7.55718 367.463 7.55718 367.901L7.55718 368.698 3.55724 372.625 3.55724 377.77ZM4.44264 377.77 4.44264 373.031 7.5103 370.067C9.19778 368.437 10.6978 367.104 10.8436 367.104L11.1092 367.104 11.0571 368.552C10.9998 370.047 10.5311 373.557 10.0259 376.229L9.73944 377.77ZM7.55718 395.104 7.56239 394.551C7.5676 394.244 7.85405 392.911 8.20821 391.588L8.84883 389.182 9.2759 388.921 9.70298 388.656 12.6509 388.713 15.5935 388.775 15.8696 389.052 16.1508 389.328 9.7759 389.328 9.7759 390.218 16.4425 390.218 16.4425 391.104 9.28111 391.104 9.55715 391.551 9.82798 391.994 16.8904 391.994 16.8904 393.328 8.44258 393.328 8.44258 394.286 9.89048 394.202C10.6821 394.161 12.5831 394.145 14.1092 394.171L16.8904 394.218 16.8904 395.104ZM8.44258 381.63 8.44258 381.067C8.44258 380.765 8.56758 380.192 8.71341 379.807L8.98424 379.104 15.906 379.104 16.1768 379.807C16.3227 380.192 16.4425 380.77 16.4425 381.088L16.4425 381.666 12.4425 381.651ZM8.44258 311.553 8.44258 266.663 14.2237 266.663 14.2237 257.33 26.6663 257.33 26.6663 266.663 33.7755 266.663 33.7755 311.553 32.4422 311.553 32.4422 267.553 31.5568 267.553 31.5568 311.553ZM8.87487 387.552 10.2238 384.885 11.5675 382.218 14.156 382.218 15.0779 384.677C15.5883 386.031 15.9998 387.229 15.9998 387.343 15.9998 387.458 14.3956 387.552 12.4373 387.552ZM11.104 377.218C11.104 376.911 11.5467 372.911 12.0884 368.328L13.0727 359.995 13.3904 360.557C13.7342 361.172 15.6769 369.76 16.4216 373.963 16.6768 375.416 16.8904 376.864 16.8904 377.187L16.8904 377.77 11.1092 377.77ZM13.3331 354.229 13.3331 322.662 24.4423 322.662 24.4423 377.77 19.2237 377.77 16.2758 366ZM16.0206 382.885 17.1195 382.463 18.2237 382.046 18.2237 381.432C18.2237 381.099 18.0154 380.437 17.7602 379.963L17.3018 379.104 20.9945 379.104 20.6872 380.104C20.5205 380.656 20.2757 381.458 20.1403 381.885L19.8955 382.661 21.333 382.661 21.3018 383.218C21.2809 383.52 20.8955 384.822 20.4372 386.104L19.6091 388.437 19.9164 388.489C20.083 388.52 20.4007 388.51 20.6143 388.473L21.0101 388.4 20.7289 390.088C20.5778 391.015 20.2393 392.52 19.9841 393.437L19.5153 395.104 18.8331 395.104 17.7602 390.885 17.8747 386.885ZM20.8903 395.104 20.8903 394.354C20.8903 393.942 21.2132 392.442 21.6143 391.02L22.3382 388.437 27.9996 388.437 27.9996 389.328 23.109 389.328 23.109 390.218 28.4423 390.218 28.4423 391.104 22.2236 391.104 22.2236 391.994 28.8902 391.994 28.8902 393.328 22.2236 393.328 22.2236 394.286 25.7809 394.14 29.3329 393.994 29.3329 395.104ZM21.2236 387.552 21.4684 386.328C21.6038 385.656 21.9216 384.557 22.1768 383.885L22.6455 382.661 27.0048 382.661 27.2652 383.437C27.4058 383.864 27.8069 384.968 28.1558 385.885L28.786 387.552ZM21.3903 381.239 21.8799 380.171 22.3643 379.104 27.8954 379.104 28.1663 380.104C28.3121 380.656 28.4371 381.255 28.4371 381.437L28.4423 381.77 21.9268 381.77 21.3955 381.239ZM32.9891 395.104 34.4995 389.104 38.4734 389.072 42.4421 389.041 39.2234 389.203 35.9995 389.364 35.9995 390.218 42.666 390.218 42.666 391.104 35.5568 391.104 35.5568 391.994 43.1087 391.994 43.1087 393.328 35.1089 393.328 35.1089 394.218 43.5566 394.218 43.5566 395.104ZM34.2703 380.76C34.2651 380.578 34.3328 380.338 34.4318 380.026L34.7287 379.104 39.5255 379.104 39.9838 379.963C40.239 380.437 40.4421 381.031 40.4421 381.281L40.4421 381.739 37.4942 381.541C34.963 381.375 34.2859 381.312 34.2703 380.76ZM34.6609 386.994C34.6609 386.687 35.1089 385.489 35.6557 384.328L36.6557 382.218 39.489 382.218 40.6348 384.713C41.265 386.088 41.7754 387.286 41.7754 387.38 41.7754 387.473 40.1765 387.552 38.2234 387.552L34.6662 387.552ZM35.9995 311.553 35.9995 266.663 37.7755 266.663 37.7755 257.33 39.5567 257.33 39.5567 311.553ZM36.4213 322.662 39.5567 322.662 39.5202 344.328C39.4994 356.245 39.4109 365.797 39.3171 365.552 39.2234 365.307 38.588 362.505 37.9109 359.328L36.6765 353.552 36.5515 338.104ZM40.3432 370.161C40.364 368.255 41.7546 369.489 45.442 372.817L47.1087 374.317 47.1087 378.218 41.7963 378.218 41.5827 377.218C40.8067 373.583 40.3275 371.302 40.3432 370.161Z" transform="matrix(1.00001 0 0 1 640 270)"/><path d="M7.55718 251.996 42.666 251.996 42.666 235.554 7.55718 235.554Z" fill="#FEFEFE" transform="matrix(1.00001 0 0 1 640 270)"/><path d="M7.55718 251.996 42.666 251.996 42.666 235.554 7.55718 235.554ZM14.2237 251.106 14.2237 236.439 26.6663 236.439 26.6663 251.106ZM37.3328 251.106 37.3328 236.439 41.7754 236.439 41.7754 251.106Z" transform="matrix(1.00001 0 0 1 640 270)"/><path d="M7.55718 216.887 10.578 216.887 11.1353 218.33C11.4373 219.127 11.7082 219.976 11.7342 220.221L11.7759 220.663 13.1561 220.799 14.531 220.929 13.6352 225.554 13.0675 225.892 12.4946 226.231 12.1977 228.21 11.9061 230.189 10.6769 231.21 10.9061 231.58 11.1405 231.955 24.4736 231.955C31.812 231.955 38.0776 231.856 38.4005 231.731L38.9838 231.507 38.2078 228.752C37.7859 227.236 37.0099 225.205 36.4943 224.236L35.5568 222.476 35.5568 220.439 37.2807 220.439 37.9734 219.455C38.3536 218.908 38.6661 218.111 38.6661 217.674L38.6661 216.887 41.7754 216.887 41.7754 157.43 41.114 155.269C40.7494 154.081 39.4942 149.909 38.3276 145.998L36.2026 138.889 24.5621 138.769 12.9269 138.649 12.479 140.321C12.2342 141.243 11.0259 145.758 9.79673 150.357L7.55718 158.722ZM18.0987 220.439 23.5569 220.439 23.5153 221.221C23.4424 222.617 22.6038 225.09 21.9632 225.809L21.333 226.512 21.333 228.939 20.8903 228.663 20.4424 228.387 20.4424 226.695 18.6403 225.018 18.3695 222.726ZM26.609 220.439 31.9995 220.439 31.9527 220.773C31.9266 220.96 31.7131 221.96 31.4839 222.997L31.0568 224.887 30.3016 224.887 29.9996 226.658 29.7027 228.434 29.2964 228.684 28.8902 228.939 28.8902 226.325 27.5777 225.241 27.3069 223.616C27.1558 222.726 26.9371 221.648 26.8225 221.221Z" fill="#FEFEFE" transform="matrix(1.00001 0 0 1 640 270)"/><path d="M7.55718 216.887 10.578 216.887 11.1353 218.33C11.4373 219.127 11.7082 219.976 11.7342 220.221L11.7759 220.663 13.1561 220.799 14.531 220.929 13.6352 225.554 13.0675 225.892 12.4946 226.231 12.1977 228.21 11.9061 230.189 10.6769 231.21 10.9061 231.58 11.1405 231.955 24.4736 231.955C31.812 231.955 38.0776 231.856 38.4005 231.731L38.9838 231.507 38.2078 228.752C37.7859 227.236 37.0099 225.205 36.4943 224.236L35.5568 222.476 35.5568 220.439 37.2807 220.439 37.9734 219.455C38.3536 218.908 38.6661 218.111 38.6661 217.674L38.6661 216.887 41.7754 216.887 41.7754 157.43 41.114 155.269C40.7494 154.081 39.4942 149.909 38.3276 145.998L36.2026 138.889 24.5621 138.769 12.9269 138.649 12.479 140.321C12.2342 141.243 11.0259 145.758 9.79673 150.357L7.55718 158.722ZM8.34883 158.664 8.65612 157.888C8.828 157.461 9.4009 155.409 9.93735 153.331L10.9113 149.555 18.1247 149.43 25.333 149.31 25.333 158.664ZM8.44258 209.33 8.44258 159.555 39.9994 159.555 39.9994 209.33 37.8171 209.33 37.6869 206.367 37.5567 203.398 36.4422 203.033 36.4422 209.33 14.6664 209.33 14.6664 203.997 13.3331 203.997 13.3331 209.33ZM11.9998 218.486 11.9998 216.887 37.7755 216.887 37.7755 218.486 37.2442 219.018 36.713 219.554 13.0675 219.554ZM12.5727 230.642 13.0258 228.653 13.4842 226.663 18.2497 226.663 18.4216 227.221C18.5206 227.523 18.7237 228.523 18.8747 229.439L19.1508 231.106 16.0935 231.106C14.4112 231.106 12.9321 231.002 12.8071 230.877ZM14.5675 225.773 14.8644 224.106C15.4477 220.825 16.0987 219.908 16.6143 221.663 16.7393 222.09 16.9737 223.189 17.1352 224.106L17.432 225.773ZM18.0987 220.439 23.5569 220.439 23.5153 221.221C23.4424 222.617 22.6038 225.09 21.9632 225.809L21.333 226.512 21.333 228.939 20.8903 228.663 20.4424 228.387 20.4424 226.695 18.6403 225.018 18.3695 222.726ZM21.6663 230.663 21.9424 229.273C22.0986 228.512 22.2236 227.611 22.2236 227.273L22.2236 226.663 27.109 226.663 27.1194 226.997C27.1298 227.179 27.3069 228.08 27.5204 228.997L27.9058 230.663ZM23.4944 225.773 23.7236 224.997C23.8486 224.57 24.0882 223.465 24.2496 222.549 24.4111 221.627 24.7132 220.773 24.9163 220.648L25.2861 220.419 25.7496 222.096C26.01 223.018 26.2184 224.226 26.2184 224.773L26.2236 225.773ZM26.2236 148.441 26.2236 139.555 31.5152 139.555 32.8693 143.779C33.6141 146.107 34.2234 148.107 34.2234 148.227 34.2234 148.347 32.4214 148.441 30.2235 148.441ZM26.609 220.439 31.9995 220.439 31.9527 220.773C31.9266 220.96 31.7131 221.96 31.4839 222.997L31.0568 224.887 30.3016 224.887 29.9996 226.658 29.7027 228.434 29.2964 228.684 28.8902 228.939 28.8902 226.325 27.5777 225.241 27.3069 223.616C27.1558 222.726 26.9371 221.648 26.8225 221.221ZM30.2235 231.106 30.2235 230.273C30.2235 229.814 30.3485 228.814 30.4995 228.054L30.7756 226.663 35.9474 226.663 36.1453 226.997C36.2547 227.179 36.4838 228.179 36.6557 229.221L36.9682 231.106ZM31.9214 225.773 32.2339 223.887C32.4058 222.846 32.7599 221.596 33.0151 221.106L33.4891 220.221 33.7808 221.33C33.9474 221.939 34.1974 223.189 34.3432 224.106L34.6089 225.773ZM33.7755 207.997 34.6662 207.997 34.6662 160.44 33.7755 160.44ZM33.7755 139.555 35.4578 139.555 35.7286 140.555C35.8745 141.102 36.4838 143.118 37.0828 145.024L38.1713 148.498 36.713 148.217 35.2703 144.217C34.4734 142.019 33.812 140.071 33.8016 139.889ZM35.5568 202.221 38.2234 202.221 38.2234 160.44 35.5568 160.44Z" transform="matrix(1.00001 0 0 1 640 270)"/><path d="M12.8904 123.998 22.2236 123.998 22.2236 128.29 19.9737 133.821 19.557 135.581 19.557 135.998 29.8746 135.998 29.5881 135.253C29.4319 134.847 29.0985 133.597 28.8485 132.477 28.5985 131.357 28.109 129.998 27.7548 129.456L27.109 128.472 27.109 123.998 35.5568 123.998 35.5568 77.6811 12.8904 77.6811Z" fill="#FEFEFE" transform="matrix(1.00001 0 0 1 640 270)"/><path d="M12.8904 123.998 22.2236 123.998 22.2236 128.29 19.9737 133.821 19.557 135.581 19.557 135.998 29.8746 135.998 29.5881 135.253C29.4319 134.847 29.0985 133.597 28.8485 132.477 28.5985 131.357 28.109 129.998 27.7548 129.456L27.109 128.472 27.109 123.998 35.5568 123.998 35.5568 76.4416 12.8904 76.4416ZM13.7758 123.108 13.7758 84.8894 28.4423 84.8894 28.4423 123.108ZM21.3382 134.998C21.3434 134.936 21.7445 133.618 22.2288 132.071L23.109 129.253 23.109 127.326C23.109 126.269 23.234 125.087 23.3799 124.701L23.6507 123.998 25.333 123.998 25.333 128.16 26.1767 129.967C26.6402 130.962 27.1506 132.524 27.3069 133.441L27.5933 135.107 24.4632 135.107C22.7445 135.107 21.3382 135.061 21.3382 134.998ZM29.3329 123.108 29.3329 84.8894 30.2235 84.8894 30.2235 123.108ZM31.9995 123.108 31.9995 84.8894 33.3328 84.8894 33.3328 123.108Z" transform="matrix(1.00001 0 0 1 640 270)"/><path d="M12.7759 72.4 35.6245 72.4 35.3484 70.5562C35.0672 68.6552 32.536 56.8221 31.3225 51.6867L30.6662 48.9264 30.6662 33.9266 28.8902 28.9423 27.109 23.958 27.109 11.9998 25.7757 11.9998 25.7757 0 23.109 0 23.109 12.4425 22.2236 12.4425 22.2236 22.5518 19.9997 27.9579 17.7758 33.3589 17.7758 47.5826 16.6768 53.0096C16.0675 55.9992 15.0519 60.8428 14.4165 63.7751 13.781 66.7126 13.1508 69.8583 13.0154 70.775Z" fill="#FEFEFE" transform="matrix(1.00001 0 0 1 640 270)"/><path d="M12.7706 72.4416 35.6349 72.4416 35.3484 70.5562C35.0672 68.6552 32.536 56.8221 31.3225 51.6867L30.6662 48.9264 30.6662 33.9266 28.8902 28.9423 27.109 23.958 27.109 11.9998 25.7757 11.9998 25.7757 0 23.109 0 23.109 12.4425 22.2236 12.4425 22.2236 22.5518 19.9997 27.9579 17.7758 33.3589 17.7758 47.5826 16.6768 53.0096C16.0675 55.9992 15.0519 60.8428 14.4165 63.7751 13.781 66.7126 13.1508 69.8583 13.0154 70.775ZM13.6613 71.5562 13.9217 70.1083C14.5154 66.7959 17.7549 51.6815 18.0258 50.9784L18.3174 50.2232 25.3173 50.2232 25.5413 51.2232C25.6663 51.7701 26.2704 56.369 26.885 61.4366 27.4996 66.5042 27.9996 70.8531 27.9996 71.1031L27.9996 71.5562ZM18.6664 48.8899 18.6664 33.7755 26.6663 33.7755 26.6663 48.8899ZM19.1091 32.8901 19.1091 32.5412C19.1091 31.9631 22.2393 24.734 22.7653 24.1038L23.2549 23.5101 24.4059 23.6455 25.5569 23.7757 26.7652 27.3329C27.4319 29.286 27.9788 31.3381 27.9892 31.8902L27.9996 32.8901ZM23.109 22.6663 23.109 12.8904 25.7757 12.8904 25.7757 22.6663ZM23.9996 11.9998 23.9996 1.33331 24.8903 1.33331 24.8903 11.9998ZM26.1507 50.2232 26.9996 50.2232 28.1819 57.8898C28.8277 62.1032 29.4683 66.3532 29.5933 67.3323 29.7235 68.3115 29.9318 69.6604 30.0568 70.3323L30.2912 71.5562 29.0464 71.5562 27.8433 62.1085C27.1767 56.9158 26.5256 52.1138 26.3954 51.4419ZM27.9996 48.8899 27.9996 33.7755 28.8902 33.7755 28.8902 48.8899ZM28.4319 50.5305 28.661 50.3013C29.0933 49.8691 29.2548 50.4784 31.0933 59.7752 32.1089 64.9105 33.0412 69.6604 33.1714 70.3323L33.4058 71.5562 32.5933 71.5562 31.8381 67.4417C31.4266 65.1813 30.7079 61.5303 30.2496 59.3325 29.786 57.1346 29.1923 54.2544 28.9214 52.9315Z" transform="matrix(1.00001 0 0 1 640 270)"/></g></g></g></g></svg>