<svg width="50" height="165" xmlns="http://www.w3.org/2000/svg" xmlns:xlink="http://www.w3.org/1999/xlink" overflow="hidden"><defs><clipPath id="clip0"><rect x="406" y="267" width="50" height="165"/></clipPath><clipPath id="clip1"><rect x="407" y="268" width="48" height="164"/></clipPath><clipPath id="clip2"><rect x="407" y="268" width="48" height="164"/></clipPath><clipPath id="clip3"><rect x="407" y="35" width="48" height="397"/></clipPath></defs><g clip-path="url(#clip0)" transform="translate(-406 -267)"><g clip-path="url(#clip1)"><g clip-path="url(#clip2)"><g clip-path="url(#clip3)"><path d="M0 379.109 7.625 379.109 7.32292 380.5 7.01563 381.885 7.61979 382.271C7.95313 382.479 8.67708 382.656 9.22917 382.661L10.2396 382.667 8 387.083 8 387.938C8 388.667 6.67187 393.427 5.91667 395.385L5.68229 396 31.1094 396 31.1042 395.443C31.099 395.141 30.8021 393.635 30.4427 392.099L29.7812 389.312 30.3229 388.448 30.8594 387.589 29.875 385.557C29.3333 384.443 28.8906 383.339 28.8906 383.099L28.8906 382.667 29.776 382.667C30.8438 382.667 30.8333 382.734 29.9948 380.719L29.3229 379.109 33.4115 379.109 33.1094 380.906 32.8021 382.703 35.2083 382.099 34.8906 383.161C34.7188 383.745 34.0938 385.099 33.5052 386.172L32.4375 388.125 32.8958 388.672 33.349 389.219 32.6823 392.052C32.3125 393.615 32.0104 395.141 32.0052 395.443L32 396 45.8385 396 45.5208 395C44.75 392.599 44.0104 389.484 44.0052 388.635L44 387.714 42.651 385.219 41.3021 382.729 42.0729 382.297 42.849 381.865 42.3125 380.688C42.0208 380.042 41.776 379.422 41.776 379.312 41.776 379.203 43.1771 379.109 44.8906 379.109L48 379.109 48 373.807 45.3802 371.682 42.7656 369.557 42.2344 367.776 42.224 256.443 7.55729 256.443 7.55729 365.656 3.77604 369.281 0 372.906ZM16.0208 382.891 17.1198 382.469 18.224 382.052 18.224 381.438C18.224 381.104 18.0156 380.443 17.7604 379.969L17.3021 379.109 20.9948 379.109 20.6875 380.109C20.5208 380.661 20.276 381.464 20.1406 381.891L19.8958 382.667 21.3333 382.667 21.3021 383.224C21.2813 383.526 20.8958 384.828 20.4375 386.109L19.6094 388.443 19.9167 388.495C20.0833 388.526 20.401 388.516 20.6146 388.479L21.0104 388.406 20.7292 390.094C20.5781 391.021 20.2396 392.526 19.9844 393.443L19.5156 395.109 18.8333 395.109 17.7604 390.891 17.875 386.891Z" fill="#FEFEFE" transform="matrix(1 0 0 1 407 35.9986)"/><path d="M0 379.109 7.625 379.109 7.32292 380.5 7.01563 381.885 7.61979 382.271C7.95313 382.479 8.67708 382.656 9.22917 382.661L10.2396 382.667 8 387.083 8 387.938C8 388.667 6.67187 393.427 5.91667 395.385L5.68229 396 31.1094 396 31.1042 395.443C31.099 395.141 30.8021 393.635 30.4427 392.099L29.7812 389.312 30.3229 388.448 30.8594 387.589 29.875 385.557C29.3333 384.443 28.8906 383.339 28.8906 383.099L28.8906 382.667 29.776 382.667C30.8438 382.667 30.8333 382.734 29.9948 380.719L29.3229 379.109 33.4115 379.109 33.1094 380.906 32.8021 382.703 35.2083 382.099 34.8906 383.161C34.7188 383.745 34.0938 385.099 33.5052 386.172L32.4375 388.125 32.8958 388.672 33.349 389.219 32.6823 392.052C32.3125 393.615 32.0104 395.141 32.0052 395.443L32 396 45.8385 396 45.5208 395C44.75 392.599 44.0104 389.484 44.0052 388.635L44 387.714 42.651 385.219 41.3021 382.729 42.0729 382.297 42.849 381.865 42.3125 380.688C42.0208 380.042 41.776 379.422 41.776 379.312 41.776 379.203 43.1771 379.109 44.8906 379.109L48 379.109 48 373.807 45.3802 371.682 42.7656 369.557 42.2344 367.776 42.224 256.443 7.55729 256.443 7.55729 365.656 3.77604 369.281 0 372.906ZM1.33333 377.776 1.33333 372.646 4.15625 369.88C5.70313 368.354 7.10417 367.109 7.26563 367.109 7.42708 367.109 7.55729 367.469 7.55729 367.906L7.55729 368.703 3.55729 372.63 3.55729 377.776ZM4.44271 377.776 4.44271 373.036 7.51042 370.073C9.19792 368.443 10.6979 367.109 10.8437 367.109L11.1094 367.109 11.0573 368.557C11 370.052 10.5313 373.562 10.026 376.234L9.73958 377.776ZM7.55729 395.109 7.5625 394.557C7.56771 394.25 7.85417 392.917 8.20833 391.594L8.84896 389.188 9.27604 388.927 9.70313 388.661 12.651 388.719 15.5937 388.781 15.8698 389.057 16.151 389.333 9.77604 389.333 9.77604 390.224 16.4427 390.224 16.4427 391.109 9.28125 391.109 9.55729 391.557 9.82813 392 16.8906 392 16.8906 393.333 8.44271 393.333 8.44271 394.292 9.89063 394.208C10.6823 394.167 12.5833 394.151 14.1094 394.177L16.8906 394.224 16.8906 395.109ZM8.44271 381.635 8.44271 381.073C8.44271 380.771 8.56771 380.198 8.71354 379.812L8.98438 379.109 15.9063 379.109 16.1771 379.812C16.3229 380.198 16.4427 380.776 16.4427 381.094L16.4427 381.672 12.4427 381.656ZM8.44271 311.557 8.44271 266.667 14.224 266.667 14.224 257.333 26.6667 257.333 26.6667 266.667 33.776 266.667 33.776 311.557 32.4427 311.557 32.4427 267.557 31.5573 267.557 31.5573 311.557ZM8.875 387.557 10.224 384.891 11.5677 382.224 14.1563 382.224 15.0781 384.682C15.5885 386.036 16 387.234 16 387.349 16 387.464 14.3958 387.557 12.4375 387.557ZM11.1042 377.224C11.1042 376.917 11.5469 372.917 12.0885 368.333L13.0729 360 13.3906 360.562C13.7344 361.177 15.6771 369.766 16.4219 373.969 16.6771 375.422 16.8906 376.87 16.8906 377.193L16.8906 377.776 11.1094 377.776ZM13.3333 354.234 13.3333 322.667 24.4427 322.667 24.4427 377.776 19.224 377.776 16.276 366.005ZM16.0208 382.891 17.1198 382.469 18.224 382.052 18.224 381.438C18.224 381.104 18.0156 380.443 17.7604 379.969L17.3021 379.109 20.9948 379.109 20.6875 380.109C20.5208 380.661 20.276 381.464 20.1406 381.891L19.8958 382.667 21.3333 382.667 21.3021 383.224C21.2813 383.526 20.8958 384.828 20.4375 386.109L19.6094 388.443 19.9167 388.495C20.0833 388.526 20.401 388.516 20.6146 388.479L21.0104 388.406 20.7292 390.094C20.5781 391.021 20.2396 392.526 19.9844 393.443L19.5156 395.109 18.8333 395.109 17.7604 390.891 17.875 386.891ZM20.8906 395.109 20.8906 394.359C20.8906 393.948 21.2135 392.448 21.6146 391.026L22.3385 388.443 28 388.443 28 389.333 23.1094 389.333 23.1094 390.224 28.4427 390.224 28.4427 391.109 22.224 391.109 22.224 392 28.8906 392 28.8906 393.333 22.224 393.333 22.224 394.292 25.7812 394.146 29.3333 394 29.3333 395.109ZM21.224 387.557 21.4688 386.333C21.6042 385.661 21.9219 384.562 22.1771 383.891L22.6458 382.667 27.0052 382.667 27.2656 383.443C27.4062 383.87 27.8073 384.974 28.1562 385.891L28.7865 387.557ZM21.3906 381.245 21.8802 380.177 22.3646 379.109 27.8958 379.109 28.1667 380.109C28.3125 380.661 28.4375 381.26 28.4375 381.443L28.4427 381.776 21.9271 381.776 21.3958 381.245ZM32.9896 395.109 34.5 389.109 38.474 389.078 42.4427 389.047 39.224 389.208 36 389.37 36 390.224 42.6667 390.224 42.6667 391.109 35.5573 391.109 35.5573 392 43.1094 392 43.1094 393.333 35.1094 393.333 35.1094 394.224 43.5573 394.224 43.5573 395.109ZM34.2708 380.766C34.2656 380.583 34.3333 380.344 34.4323 380.031L34.7292 379.109 39.526 379.109 39.9844 379.969C40.2396 380.443 40.4427 381.036 40.4427 381.286L40.4427 381.745 37.4948 381.547C34.9635 381.38 34.2865 381.318 34.2708 380.766ZM34.6615 387C34.6615 386.693 35.1094 385.495 35.6562 384.333L36.6562 382.224 39.4896 382.224 40.6354 384.719C41.2656 386.094 41.776 387.292 41.776 387.385 41.776 387.479 40.1771 387.557 38.224 387.557L34.6667 387.557ZM36 311.557 36 266.667 37.776 266.667 37.776 257.333 39.5573 257.333 39.5573 311.557ZM36.4219 322.667 39.5573 322.667 39.5208 344.333C39.5 356.25 39.4115 365.802 39.3177 365.557 39.224 365.312 38.5885 362.51 37.9115 359.333L36.6771 353.557 36.5521 338.109ZM40.3438 370.167C40.3646 368.26 41.7552 369.495 45.4427 372.823L47.1094 374.323 47.1094 378.224 41.7969 378.224 41.5833 377.224C40.8073 373.589 40.3281 371.307 40.3438 370.167Z" transform="matrix(1 0 0 1 407 35.9986)"/><path d="M7.55729 252 42.6667 252 42.6667 235.557 7.55729 235.557Z" fill="#FEFEFE" transform="matrix(1 0 0 1 407 35.9986)"/><path d="M7.55729 252 42.6667 252 42.6667 235.557 7.55729 235.557ZM14.224 251.109 14.224 236.443 26.6667 236.443 26.6667 251.109ZM37.3333 251.109 37.3333 236.443 41.776 236.443 41.776 251.109Z" transform="matrix(1 0 0 1 407 35.9986)"/><path d="M7.55729 216.891 10.5781 216.891 11.1354 218.333C11.4375 219.13 11.7083 219.979 11.7344 220.224L11.776 220.667 13.1563 220.802 14.5313 220.932 13.6354 225.557 13.0677 225.896 12.4948 226.234 12.1979 228.214 11.9063 230.193 10.6771 231.214 10.9063 231.583 11.1406 231.958 24.474 231.958C31.8125 231.958 38.0781 231.859 38.401 231.734L38.9844 231.51 38.2083 228.755C37.7865 227.24 37.0104 225.208 36.4948 224.24L35.5573 222.479 35.5573 220.443 37.2812 220.443 37.974 219.458C38.3542 218.911 38.6667 218.115 38.6667 217.677L38.6667 216.891 41.776 216.891 41.776 157.432 41.1146 155.271C40.75 154.083 39.4948 149.911 38.3281 146L36.2031 138.891 24.5625 138.771 12.9271 138.651 12.4792 140.323C12.2344 141.245 11.026 145.76 9.79688 150.359L7.55729 158.724ZM18.099 220.443 23.5573 220.443 23.5156 221.224C23.4427 222.62 22.6042 225.094 21.9635 225.812L21.3333 226.516 21.3333 228.943 20.8906 228.667 20.4427 228.391 20.4427 226.698 18.6406 225.021 18.3698 222.729ZM26.6094 220.443 32 220.443 31.9531 220.776C31.9271 220.964 31.7135 221.964 31.4844 223L31.0573 224.891 30.3021 224.891 30 226.661 29.7031 228.438 29.2969 228.688 28.8906 228.943 28.8906 226.328 27.5781 225.245 27.3073 223.62C27.1562 222.729 26.9375 221.651 26.8229 221.224Z" fill="#FEFEFE" transform="matrix(1 0 0 1 407 35.9986)"/><path d="M7.55729 216.891 10.5781 216.891 11.1354 218.333C11.4375 219.13 11.7083 219.979 11.7344 220.224L11.776 220.667 13.1563 220.802 14.5313 220.932 13.6354 225.557 13.0677 225.896 12.4948 226.234 12.1979 228.214 11.9063 230.193 10.6771 231.214 10.9063 231.583 11.1406 231.958 24.474 231.958C31.8125 231.958 38.0781 231.859 38.401 231.734L38.9844 231.51 38.2083 228.755C37.7865 227.24 37.0104 225.208 36.4948 224.24L35.5573 222.479 35.5573 220.443 37.2812 220.443 37.974 219.458C38.3542 218.911 38.6667 218.115 38.6667 217.677L38.6667 216.891 41.776 216.891 41.776 157.432 41.1146 155.271C40.75 154.083 39.4948 149.911 38.3281 146L36.2031 138.891 24.5625 138.771 12.9271 138.651 12.4792 140.323C12.2344 141.245 11.026 145.76 9.79688 150.359L7.55729 158.724ZM8.34896 158.667 8.65625 157.891C8.82813 157.464 9.40104 155.411 9.9375 153.333L10.9115 149.557 18.125 149.432 25.3333 149.312 25.3333 158.667ZM8.44271 209.333 8.44271 159.557 40 159.557 40 209.333 37.8177 209.333 37.6875 206.37 37.5573 203.401 36.4427 203.036 36.4427 209.333 14.6667 209.333 14.6667 204 13.3333 204 13.3333 209.333ZM12 218.49 12 216.891 37.776 216.891 37.776 218.49 37.2448 219.021 36.7135 219.557 13.0677 219.557ZM12.5729 230.646 13.026 228.656 13.4844 226.667 18.25 226.667 18.4219 227.224C18.5208 227.526 18.724 228.526 18.875 229.443L19.151 231.109 16.0938 231.109C14.4115 231.109 12.9323 231.005 12.8073 230.88ZM14.5677 225.776 14.8646 224.109C15.4479 220.828 16.099 219.911 16.6146 221.667 16.7396 222.094 16.974 223.193 17.1354 224.109L17.4323 225.776ZM18.099 220.443 23.5573 220.443 23.5156 221.224C23.4427 222.62 22.6042 225.094 21.9635 225.812L21.3333 226.516 21.3333 228.943 20.8906 228.667 20.4427 228.391 20.4427 226.698 18.6406 225.021 18.3698 222.729ZM21.6667 230.667 21.9427 229.276C22.099 228.516 22.224 227.615 22.224 227.276L22.224 226.667 27.1094 226.667 27.1198 227C27.1302 227.182 27.3073 228.083 27.5208 229L27.9062 230.667ZM23.4948 225.776 23.724 225C23.849 224.573 24.0885 223.469 24.25 222.552 24.4115 221.63 24.7135 220.776 24.9167 220.651L25.2865 220.422 25.75 222.099C26.0104 223.021 26.2188 224.229 26.2188 224.776L26.224 225.776ZM26.224 148.443 26.224 139.557 31.5156 139.557 32.8698 143.781C33.6146 146.109 34.224 148.109 34.224 148.229 34.224 148.349 32.4219 148.443 30.224 148.443ZM26.6094 220.443 32 220.443 31.9531 220.776C31.9271 220.964 31.7135 221.964 31.4844 223L31.0573 224.891 30.3021 224.891 30 226.661 29.7031 228.438 29.2969 228.688 28.8906 228.943 28.8906 226.328 27.5781 225.245 27.3073 223.62C27.1562 222.729 26.9375 221.651 26.8229 221.224ZM30.224 231.109 30.224 230.276C30.224 229.818 30.349 228.818 30.5 228.057L30.776 226.667 35.9479 226.667 36.1458 227C36.2552 227.182 36.4844 228.182 36.6562 229.224L36.9688 231.109ZM31.9219 225.776 32.2344 223.891C32.4062 222.849 32.7604 221.599 33.0156 221.109L33.4896 220.224 33.7812 221.333C33.9479 221.943 34.1979 223.193 34.3438 224.109L34.6094 225.776ZM33.776 208 34.6667 208 34.6667 160.443 33.776 160.443ZM33.776 139.557 35.4583 139.557 35.7292 140.557C35.875 141.104 36.4844 143.12 37.0833 145.026L38.1719 148.5 36.7135 148.219 35.2708 144.219C34.474 142.021 33.8125 140.073 33.8021 139.891ZM35.5573 202.224 38.224 202.224 38.224 160.443 35.5573 160.443Z" transform="matrix(1 0 0 1 407 35.9986)"/><path d="M12.8906 124 22.224 124 22.224 128.292 19.974 133.823 19.5573 135.583 19.5573 136 29.875 136 29.5885 135.255C29.4323 134.849 29.099 133.599 28.849 132.479 28.599 131.359 28.1094 130 27.7552 129.458L27.1094 128.474 27.1094 124 35.5573 124 35.5573 77.6823 12.8906 77.6823Z" fill="#FEFEFE" transform="matrix(1 0 0 1 407 35.9986)"/><path d="M12.8906 124 22.224 124 22.224 128.292 19.974 133.823 19.5573 135.583 19.5573 136 29.875 136 29.5885 135.255C29.4323 134.849 29.099 133.599 28.849 132.479 28.599 131.359 28.1094 130 27.7552 129.458L27.1094 128.474 27.1094 124 35.5573 124 35.5573 76.4427 12.8906 76.4427ZM13.776 123.109 13.776 84.8906 28.4427 84.8906 28.4427 123.109ZM21.3385 135C21.3438 134.938 21.7448 133.62 22.2292 132.073L23.1094 129.255 23.1094 127.328C23.1094 126.271 23.2344 125.089 23.3802 124.703L23.651 124 25.3333 124 25.3333 128.161 26.1771 129.969C26.6406 130.964 27.151 132.526 27.3073 133.443L27.5938 135.109 24.4635 135.109C22.7448 135.109 21.3385 135.062 21.3385 135ZM29.3333 123.109 29.3333 84.8906 30.224 84.8906 30.224 123.109ZM32 123.109 32 84.8906 33.3333 84.8906 33.3333 123.109Z" transform="matrix(1 0 0 1 407 35.9986)"/><path d="M12.776 72.401 35.625 72.401 35.349 70.5573C35.0677 68.6562 32.5365 56.8229 31.3229 51.6875L30.6667 48.9271 30.6667 33.9271 28.8906 28.9427 27.1094 23.9583 27.1094 12 25.776 12 25.776 0 23.1094 0 23.1094 12.4427 22.224 12.4427 22.224 22.5521 20 27.9583 17.776 33.3594 17.776 47.5833 16.6771 53.0104C16.0677 56 15.0521 60.8438 14.4167 63.776 13.7813 66.7135 13.151 69.8594 13.0156 70.776Z" fill="#FEFEFE" transform="matrix(1 0 0 1 407 35.9986)"/><path d="M12.7708 72.4427 35.6354 72.4427 35.349 70.5573C35.0677 68.6562 32.5365 56.8229 31.3229 51.6875L30.6667 48.9271 30.6667 33.9271 28.8906 28.9427 27.1094 23.9583 27.1094 12 25.776 12 25.776 0 23.1094 0 23.1094 12.4427 22.224 12.4427 22.224 22.5521 20 27.9583 17.776 33.3594 17.776 47.5833 16.6771 53.0104C16.0677 56 15.0521 60.8438 14.4167 63.776 13.7813 66.7135 13.151 69.8594 13.0156 70.776ZM13.6615 71.5573 13.9219 70.1094C14.5156 66.7969 17.7552 51.6823 18.026 50.9792L18.3177 50.224 25.3177 50.224 25.5417 51.224C25.6667 51.7708 26.2708 56.3698 26.8854 61.4375 27.5 66.5052 28 70.8542 28 71.1042L28 71.5573ZM18.6667 48.8906 18.6667 33.776 26.6667 33.776 26.6667 48.8906ZM19.1094 32.8906 19.1094 32.5417C19.1094 31.9635 22.2396 24.7344 22.7656 24.1042L23.2552 23.5104 24.4062 23.6458 25.5573 23.776 26.7656 27.3333C27.4323 29.2865 27.9792 31.3385 27.9896 31.8906L28 32.8906ZM23.1094 22.6667 23.1094 12.8906 25.776 12.8906 25.776 22.6667ZM24 12 24 1.33333 24.8906 1.33333 24.8906 12ZM26.151 50.224 27 50.224 28.1823 57.8906C28.8281 62.1042 29.4688 66.3542 29.5938 67.3333 29.724 68.3125 29.9323 69.6615 30.0573 70.3333L30.2917 71.5573 29.0469 71.5573 27.8438 62.1094C27.1771 56.9167 26.526 52.1146 26.3958 51.4427ZM28 48.8906 28 33.776 28.8906 33.776 28.8906 48.8906ZM28.4323 50.5312 28.6615 50.3021C29.0938 49.8698 29.2552 50.4792 31.0938 59.776 32.1094 64.9115 33.0417 69.6615 33.1719 70.3333L33.4062 71.5573 32.5938 71.5573 31.8385 67.4427C31.4271 65.1823 30.7083 61.5312 30.25 59.3333 29.7865 57.1354 29.1927 54.2552 28.9219 52.9323Z" transform="matrix(1 0 0 1 407 35.9986)"/></g></g></g></g></svg>