<svg width="49" height="97" xmlns="http://www.w3.org/2000/svg" xmlns:xlink="http://www.w3.org/1999/xlink" overflow="hidden"><defs><clipPath id="clip0"><rect x="534" y="255" width="49" height="97"/></clipPath><clipPath id="clip1"><rect x="535" y="255" width="48" height="96"/></clipPath><clipPath id="clip2"><rect x="535" y="255" width="48" height="96"/></clipPath><clipPath id="clip3"><rect x="535" y="117" width="48" height="397"/></clipPath></defs><g clip-path="url(#clip0)" transform="translate(-534 -255)"><g clip-path="url(#clip1)"><g clip-path="url(#clip2)"><g clip-path="url(#clip3)"><path d="M0 379.1 7.62482 379.1 7.32274 380.491 7.01546 381.876 7.61961 382.262C7.95294 382.47 8.67688 382.647 9.22895 382.652L10.2393 382.658 7.99981 387.074 7.99981 387.928C7.99981 388.657 6.67172 393.418 5.91653 395.376L5.68216 395.991 31.1086 395.991 31.1034 395.433C31.0982 395.131 30.8014 393.626 30.442 392.09L29.7805 389.303 30.3222 388.439 30.8586 387.579 29.8743 385.548C29.3326 384.434 28.8899 383.329 28.8899 383.09L28.8899 382.658 29.7753 382.658C30.843 382.658 30.8326 382.725 29.9941 380.71L29.3222 379.1 33.4107 379.1 33.1086 380.897 32.8013 382.694 35.2075 382.09 34.8898 383.152C34.7179 383.736 34.0929 385.09 33.5044 386.163L32.4367 388.116 32.8951 388.663 33.3482 389.21 32.6815 392.043C32.3117 393.605 32.0097 395.131 32.0044 395.433L31.9992 395.991 45.8375 395.991 45.5198 394.991C44.7489 392.59 44.0094 389.475 44.0042 388.626L43.999 387.704 42.65 385.21 41.3011 382.72 42.0719 382.288 42.8479 381.855 42.3115 380.678C42.0198 380.033 41.7751 379.413 41.7751 379.303 41.7751 379.194 43.1761 379.1 44.8896 379.1L47.9989 379.1 47.9989 373.798 45.3791 371.673 42.7646 369.549 42.2334 367.767 42.223 256.437 7.55711 256.437 7.55711 365.648 3.77595 369.272 0 372.897ZM16.0205 382.882 17.1194 382.46 18.2235 382.043 18.2235 381.428C18.2235 381.095 18.0152 380.434 17.76 379.96L17.3017 379.1 20.9943 379.1 20.687 380.1C20.5203 380.652 20.2756 381.454 20.1401 381.882L19.8954 382.658 21.3328 382.658 21.3016 383.215C21.2807 383.517 20.8953 384.819 20.437 386.1L19.6089 388.433 19.9162 388.486C20.0829 388.517 20.4006 388.506 20.6141 388.47L21.0099 388.397 20.7287 390.084C20.5776 391.012 20.2391 392.517 19.9839 393.433L19.5152 395.1 18.8329 395.1 17.76 390.881 17.8746 386.881Z" fill="#FEFEFE" transform="matrix(1.00002 0 0 1 535 117.674)"/><path d="M0 379.1 7.62482 379.1 7.32274 380.491 7.01546 381.876 7.61961 382.262C7.95294 382.47 8.67688 382.647 9.22895 382.652L10.2393 382.658 7.99981 387.074 7.99981 387.928C7.99981 388.657 6.67172 393.418 5.91653 395.376L5.68216 395.991 31.1086 395.991 31.1034 395.433C31.0982 395.131 30.8014 393.626 30.442 392.09L29.7805 389.303 30.3222 388.439 30.8586 387.579 29.8743 385.548C29.3326 384.434 28.8899 383.329 28.8899 383.09L28.8899 382.658 29.7753 382.658C30.843 382.658 30.8326 382.725 29.9941 380.71L29.3222 379.1 33.4107 379.1 33.1086 380.897 32.8013 382.694 35.2075 382.09 34.8898 383.152C34.7179 383.736 34.0929 385.09 33.5044 386.163L32.4367 388.116 32.8951 388.663 33.3482 389.21 32.6815 392.043C32.3117 393.605 32.0097 395.131 32.0044 395.433L31.9992 395.991 45.8375 395.991 45.5198 394.991C44.7489 392.59 44.0094 389.475 44.0042 388.626L43.999 387.704 42.65 385.21 41.3011 382.72 42.0719 382.288 42.8479 381.855 42.3115 380.678C42.0198 380.033 41.7751 379.413 41.7751 379.303 41.7751 379.194 43.1761 379.1 44.8896 379.1L47.9989 379.1 47.9989 373.798 45.3791 371.673 42.7646 369.549 42.2334 367.767 42.223 256.437 7.55711 256.437 7.55711 365.648 3.77595 369.272 0 372.897ZM1.3333 377.767 1.3333 372.637 4.15615 369.871C5.70299 368.345 7.104 367.101 7.26545 367.101 7.42691 367.101 7.55711 367.46 7.55711 367.898L7.55711 368.694 3.55721 372.621 3.55721 377.767ZM4.4426 377.767 4.4426 373.028 7.51024 370.064C9.1977 368.434 10.6977 367.101 10.8435 367.101L11.1091 367.101 11.057 368.549C10.9997 370.043 10.531 373.554 10.0258 376.225L9.73935 377.767ZM7.55711 395.1 7.56232 394.548C7.56753 394.241 7.85398 392.907 8.20814 391.584L8.84875 389.178 9.27582 388.918 9.7029 388.652 12.6507 388.71 15.5934 388.772 15.8694 389.048 16.1507 389.324 9.77581 389.324 9.77581 390.215 16.4423 390.215 16.4423 391.1 9.28103 391.1 9.55707 391.548 9.82789 391.991 16.8902 391.991 16.8902 393.324 8.44251 393.324 8.44251 394.282 9.89039 394.199C10.682 394.157 12.583 394.142 14.109 394.168L16.8902 394.215 16.8902 395.1ZM8.44251 381.626 8.44251 381.064C8.44251 380.762 8.5675 380.189 8.71333 379.803L8.98416 379.1 15.9059 379.1 16.1767 379.803C16.3225 380.189 16.4423 380.767 16.4423 381.085L16.4423 381.663 12.4424 381.647ZM8.44251 311.55 8.44251 266.66 14.2236 266.66 14.2236 257.327 26.666 257.327 26.666 266.66 33.7752 266.66 33.7752 311.55 32.4419 311.55 32.4419 267.551 31.5565 267.551 31.5565 311.55ZM8.87479 387.548 10.2237 384.881 11.5674 382.215 14.1559 382.215 15.0778 384.673C15.5882 386.027 15.9996 387.225 15.9996 387.34 15.9996 387.454 14.3955 387.548 12.4372 387.548ZM11.1039 377.215C11.1039 376.908 11.5466 372.908 12.0883 368.325L13.0726 359.991 13.3903 360.554C13.734 361.169 15.6767 369.757 16.4215 373.96 16.6767 375.413 16.8902 376.861 16.8902 377.184L16.8902 377.767 11.1091 377.767ZM13.333 354.226 13.333 322.659 24.4421 322.659 24.4421 377.767 19.2235 377.767 16.2757 365.997ZM16.0205 382.882 17.1194 382.46 18.2235 382.043 18.2235 381.428C18.2235 381.095 18.0152 380.434 17.76 379.96L17.3017 379.1 20.9943 379.1 20.687 380.1C20.5203 380.652 20.2756 381.454 20.1401 381.882L19.8954 382.658 21.3328 382.658 21.3016 383.215C21.2807 383.517 20.8953 384.819 20.437 386.1L19.6089 388.433 19.9162 388.486C20.0829 388.517 20.4006 388.506 20.6141 388.47L21.0099 388.397 20.7287 390.084C20.5776 391.012 20.2391 392.517 19.9839 393.433L19.5152 395.1 18.8329 395.1 17.76 390.881 17.8746 386.881ZM20.8901 395.1 20.8901 394.35C20.8901 393.939 21.213 392.439 21.6141 391.017L22.338 388.433 27.9993 388.433 27.9993 389.324 23.1088 389.324 23.1088 390.215 28.442 390.215 28.442 391.1 22.2234 391.1 22.2234 391.991 28.8899 391.991 28.8899 393.324 22.2234 393.324 22.2234 394.282 25.7806 394.136 29.3326 393.991 29.3326 395.1ZM21.2235 387.548 21.4682 386.324C21.6037 385.652 21.9214 384.553 22.1766 383.882L22.6453 382.658 27.0046 382.658 27.265 383.434C27.4056 383.861 27.8066 384.965 28.1556 385.881L28.7858 387.548ZM21.3901 381.236 21.8797 380.168 22.3641 379.1 27.8952 379.1 28.166 380.1C28.3118 380.652 28.4368 381.251 28.4368 381.434L28.442 381.767 21.9266 381.767 21.3953 381.236ZM32.9888 395.1 34.4992 389.1 38.473 389.069 42.4417 389.038 39.223 389.199 35.9991 389.361 35.9991 390.215 42.6657 390.215 42.6657 391.1 35.5564 391.1 35.5564 391.991 43.1084 391.991 43.1084 393.324 35.1085 393.324 35.1085 394.215 43.5563 394.215 43.5563 395.1ZM34.27 380.757C34.2648 380.574 34.3325 380.335 34.4315 380.022L34.7283 379.1 39.5251 379.1 39.9834 379.96C40.2386 380.434 40.4417 381.027 40.4417 381.277L40.4417 381.736 37.4939 381.538C34.9627 381.371 34.2856 381.309 34.27 380.757ZM34.6606 386.991C34.6606 386.684 35.1085 385.486 35.6554 384.324L36.6554 382.215 39.4886 382.215 40.6345 384.71C41.2646 386.085 41.7751 387.282 41.7751 387.376 41.7751 387.47 40.1761 387.548 38.223 387.548L34.6658 387.548ZM35.9991 311.55 35.9991 266.66 37.7751 266.66 37.7751 257.327 39.5564 257.327 39.5564 311.55ZM36.421 322.659 39.5564 322.659 39.5199 344.325C39.4991 356.242 39.4105 365.793 39.3168 365.549 39.223 365.304 38.5876 362.502 37.9106 359.325L36.6762 353.549 36.5512 338.101ZM40.3428 370.158C40.3636 368.252 41.7542 369.486 45.4416 372.814L47.1083 374.314 47.1083 378.215 41.7959 378.215 41.5823 377.215C40.8063 373.58 40.3272 371.298 40.3428 370.158Z" transform="matrix(1.00002 0 0 1 535 117.674)"/><path d="M7.55711 251.994 42.6657 251.994 42.6657 235.552 7.55711 235.552Z" fill="#FEFEFE" transform="matrix(1.00002 0 0 1 535 117.674)"/><path d="M7.55711 251.994 42.6657 251.994 42.6657 235.552 7.55711 235.552ZM14.2236 251.103 14.2236 236.437 26.666 236.437 26.666 251.103ZM37.3324 251.103 37.3324 236.437 41.7751 236.437 41.7751 251.103Z" transform="matrix(1.00002 0 0 1 535 117.674)"/><path d="M7.55711 216.885 10.5779 216.885 11.1352 218.328C11.4372 219.125 11.7081 219.974 11.7341 220.219L11.7758 220.661 13.1559 220.797 14.5309 220.927 13.6351 225.552 13.0674 225.89 12.4945 226.229 12.1976 228.208 11.906 230.187 10.6768 231.208 10.906 231.578 11.1404 231.953 24.4734 231.953C31.8117 231.953 38.0772 231.854 38.4001 231.729L38.9834 231.505 38.2074 228.75C37.7856 227.234 37.0095 225.203 36.4939 224.234L35.5564 222.474 35.5564 220.437 37.2804 220.437 37.9731 219.453C38.3533 218.906 38.6657 218.109 38.6657 217.672L38.6657 216.885 41.7751 216.885 41.7751 157.429 41.1136 155.267C40.749 154.08 39.4939 149.908 38.3272 145.997L36.2023 138.887 24.5619 138.768 12.9268 138.648 12.4789 140.32C12.2341 141.241 11.0258 145.757 9.79664 150.356L7.55711 158.72ZM18.0985 220.437 23.5567 220.437 23.5151 221.219C23.4422 222.615 22.6036 225.088 21.963 225.807L21.3328 226.51 21.3328 228.937 20.8901 228.661 20.4422 228.385 20.4422 226.693 18.6402 225.015 18.3694 222.724ZM26.6087 220.437 31.9992 220.437 31.9524 220.771C31.9263 220.958 31.7128 221.958 31.4836 222.995L31.0566 224.885 30.3014 224.885 29.9993 226.656 29.7024 228.432 29.2962 228.682 28.8899 228.937 28.8899 226.323 27.5775 225.239 27.3066 223.614C27.1556 222.724 26.9369 221.646 26.8223 221.219Z" fill="#FEFEFE" transform="matrix(1.00002 0 0 1 535 117.674)"/><path d="M7.55711 216.885 10.5779 216.885 11.1352 218.328C11.4372 219.125 11.7081 219.974 11.7341 220.219L11.7758 220.661 13.1559 220.797 14.5309 220.927 13.6351 225.552 13.0674 225.89 12.4945 226.229 12.1976 228.208 11.906 230.187 10.6768 231.208 10.906 231.578 11.1404 231.953 24.4734 231.953C31.8117 231.953 38.0772 231.854 38.4001 231.729L38.9834 231.505 38.2074 228.75C37.7856 227.234 37.0095 225.203 36.4939 224.234L35.5564 222.474 35.5564 220.437 37.2804 220.437 37.9731 219.453C38.3533 218.906 38.6657 218.109 38.6657 217.672L38.6657 216.885 41.7751 216.885 41.7751 157.429 41.1136 155.267C40.749 154.08 39.4939 149.908 38.3272 145.997L36.2023 138.887 24.5619 138.768 12.9268 138.648 12.4789 140.32C12.2341 141.241 11.0258 145.757 9.79664 150.356L7.55711 158.72ZM8.34876 158.663 8.65604 157.887C8.82792 157.46 9.40082 155.408 9.93726 153.33L10.9112 149.554 18.1246 149.429 25.3327 149.309 25.3327 158.663ZM8.44251 209.328 8.44251 159.553 39.9991 159.553 39.9991 209.328 37.8168 209.328 37.6866 206.365 37.5564 203.396 36.4418 203.032 36.4418 209.328 14.6663 209.328 14.6663 203.995 13.333 203.995 13.333 209.328ZM11.9997 218.484 11.9997 216.885 37.7751 216.885 37.7751 218.484 37.2439 219.016 36.7127 219.552 13.0674 219.552ZM12.5726 230.64 13.0257 228.651 13.4841 226.661 18.2496 226.661 18.4214 227.219C18.5204 227.521 18.7235 228.521 18.8746 229.437L19.1506 231.104 16.0934 231.104C14.4111 231.104 12.932 231 12.807 230.875ZM14.5674 225.771 14.8642 224.104C15.4476 220.823 16.0986 219.906 16.6142 221.661 16.7392 222.088 16.9736 223.187 17.135 224.104L17.4319 225.771ZM18.0985 220.437 23.5567 220.437 23.5151 221.219C23.4422 222.615 22.6036 225.088 21.963 225.807L21.3328 226.51 21.3328 228.937 20.8901 228.661 20.4422 228.385 20.4422 226.693 18.6402 225.015 18.3694 222.724ZM21.6662 230.661 21.9422 229.271C22.0984 228.51 22.2234 227.609 22.2234 227.271L22.2234 226.661 27.1087 226.661 27.1191 226.995C27.1296 227.177 27.3066 228.078 27.5202 228.995L27.9056 230.661ZM23.4942 225.771 23.7234 224.995C23.8484 224.568 24.088 223.463 24.2494 222.547 24.4109 221.625 24.713 220.771 24.9161 220.646L25.2859 220.417 25.7494 222.094C26.0098 223.016 26.2181 224.224 26.2181 224.771L26.2233 225.771ZM26.2233 148.439 26.2233 139.554 31.5149 139.554 32.869 143.778C33.6138 146.106 34.2231 148.106 34.2231 148.226 34.2231 148.345 32.4211 148.439 30.2232 148.439ZM26.6087 220.437 31.9992 220.437 31.9524 220.771C31.9263 220.958 31.7128 221.958 31.4836 222.995L31.0566 224.885 30.3014 224.885 29.9993 226.656 29.7024 228.432 29.2962 228.682 28.8899 228.937 28.8899 226.323 27.5775 225.239 27.3066 223.614C27.1556 222.724 26.9369 221.646 26.8223 221.219ZM30.2232 231.104 30.2232 230.271C30.2232 229.812 30.3482 228.812 30.4993 228.052L30.7753 226.661 35.9471 226.661 36.145 226.995C36.2543 227.177 36.4835 228.177 36.6554 229.219L36.9679 231.104ZM31.9211 225.771 32.2336 223.885C32.4055 222.844 32.7596 221.594 33.0148 221.104L33.4888 220.219 33.7804 221.328C33.9471 221.937 34.1971 223.187 34.3429 224.104L34.6086 225.771ZM33.7752 207.995 34.6658 207.995 34.6658 160.439 33.7752 160.439ZM33.7752 139.554 35.4575 139.554 35.7283 140.554C35.8741 141.101 36.4835 143.116 37.0825 145.023L38.171 148.496 36.7127 148.215 35.27 144.215C34.4731 142.017 33.8117 140.07 33.8013 139.887ZM35.5564 202.219 38.223 202.219 38.223 160.439 35.5564 160.439Z" transform="matrix(1.00002 0 0 1 535 117.674)"/><path d="M12.8903 123.997 22.2234 123.997 22.2234 128.289 19.9735 133.82 19.5568 135.58 19.5568 135.997 29.8743 135.997 29.5878 135.252C29.4316 134.846 29.0983 133.596 28.8483 132.476 28.5983 131.356 28.1087 129.997 27.7545 129.455L27.1087 128.471 27.1087 123.997 35.5564 123.997 35.5564 77.6804 12.8903 77.6804Z" fill="#FEFEFE" transform="matrix(1.00002 0 0 1 535 117.674)"/><path d="M12.8903 123.997 22.2234 123.997 22.2234 128.289 19.9735 133.82 19.5568 135.58 19.5568 135.997 29.8743 135.997 29.5878 135.252C29.4316 134.846 29.0983 133.596 28.8483 132.476 28.5983 131.356 28.1087 129.997 27.7545 129.455L27.1087 128.471 27.1087 123.997 35.5564 123.997 35.5564 76.4409 12.8903 76.4409ZM13.7757 123.106 13.7757 84.8886 28.442 84.8886 28.442 123.106ZM21.338 134.997C21.3432 134.934 21.7443 133.617 22.2286 132.07L23.1088 129.252 23.1088 127.325C23.1088 126.268 23.2338 125.086 23.3797 124.7L23.6505 123.997 25.3327 123.997 25.3327 128.158 26.1765 129.966C26.64 130.96 27.1504 132.523 27.3066 133.44L27.5931 135.106 24.463 135.106C22.7443 135.106 21.338 135.059 21.338 134.997ZM29.3326 123.106 29.3326 84.8886 30.2232 84.8886 30.2232 123.106ZM31.9992 123.106 31.9992 84.8886 33.3325 84.8886 33.3325 123.106Z" transform="matrix(1.00002 0 0 1 535 117.674)"/><path d="M12.7757 72.3993 35.6242 72.3993 35.3481 70.5556C35.0669 68.6546 32.5357 56.8216 31.3222 51.6863L30.6659 48.9259 30.6659 33.9263 28.8899 28.942 27.1087 23.9578 27.1087 11.9997 25.7754 11.9997 25.7754 0 23.1088 0 23.1088 12.4424 22.2234 12.4424 22.2234 22.5515 19.9995 27.9577 17.7756 33.3586 17.7756 47.5822 16.6767 53.0092C16.0673 55.9987 15.0517 60.8423 14.4163 63.7745 13.7809 66.712 13.1507 69.8577 13.0153 70.7744Z" fill="#FEFEFE" transform="matrix(1.00002 0 0 1 535 117.674)"/><path d="M12.7705 72.441 35.6346 72.441 35.3481 70.5556C35.0669 68.6546 32.5357 56.8216 31.3222 51.6863L30.6659 48.9259 30.6659 33.9263 28.8899 28.942 27.1087 23.9578 27.1087 11.9997 25.7754 11.9997 25.7754 0 23.1088 0 23.1088 12.4424 22.2234 12.4424 22.2234 22.5515 19.9995 27.9577 17.7756 33.3586 17.7756 47.5822 16.6767 53.0092C16.0673 55.9987 15.0517 60.8423 14.4163 63.7745 13.7809 66.712 13.1507 69.8577 13.0153 70.7744ZM13.6611 71.5556 13.9215 70.1077C14.5153 66.7953 17.7548 51.6811 18.0256 50.978L18.3173 50.2228 25.3171 50.2228 25.5411 51.2227C25.6661 51.7696 26.2702 56.3685 26.8848 61.436 27.4993 66.5036 27.9993 70.8525 27.9993 71.1025L27.9993 71.5556ZM18.6662 48.8895 18.6662 33.7752 26.666 33.7752 26.666 48.8895ZM19.1089 32.8898 19.1089 32.5409C19.1089 31.9628 22.2391 24.7338 22.7651 24.1036L23.2547 23.5099 24.4057 23.6453 25.5567 23.7755 26.765 27.3327C27.4316 29.2858 27.9785 31.3378 27.9889 31.8899L27.9993 32.8898ZM23.1088 22.6661 23.1088 12.8903 25.7754 12.8903 25.7754 22.6661ZM23.9994 11.9997 23.9994 1.3333 24.89 1.3333 24.89 11.9997ZM26.1504 50.2228 26.9994 50.2228 28.1816 57.8893C28.8274 62.1027 29.4681 66.3526 29.593 67.3317 29.7233 68.3109 29.9316 69.6598 30.0566 70.3317L30.2909 71.5556 29.0462 71.5556 27.8431 62.1079C27.1764 56.9153 26.5254 52.1133 26.3952 51.4415ZM27.9993 48.8895 27.9993 33.7752 28.8899 33.7752 28.8899 48.8895ZM28.4316 50.53 28.6608 50.3009C29.0931 49.8686 29.2545 50.478 31.093 59.7746 32.1086 64.9099 33.0409 69.6598 33.1711 70.3317L33.4055 71.5556 32.593 71.5556 31.8378 67.4411C31.4263 65.1807 30.7076 61.5298 30.2493 59.3319 29.7858 57.1341 29.192 54.2539 28.9212 52.931Z" transform="matrix(1.00002 0 0 1 535 117.674)"/></g></g></g></g></svg>